<svg width="24" height="24" viewBox="0 0 24 24" fill="none" xmlns="http://www.w3.org/2000/svg">
<path fill-rule="evenodd" clip-rule="evenodd" d="M0.5 12C0.5 11.5873 0.670031 11.1929 0.970065 10.9095L9.97007 2.40949C10.5723 1.84067 11.5217 1.86779 12.0905 2.47007C12.6593 3.07235 12.6322 4.02171 12.0299 4.59052L5.77284 10.5L21.5 10.5C22.3284 10.5 23 11.1716 23 12C23 12.8284 22.3284 13.5 21.5 13.5L5.77284 13.5L12.0299 19.4095C12.6322 19.9783 12.6593 20.9277 12.0905 21.5299C11.5217 22.1322 10.5723 22.1593 9.97007 21.5905L0.970065 13.0905C0.670031 12.8072 0.5 12.4127 0.5 12Z" fill="white"/>
</svg>
