<svg width="100" height="24" viewBox="0 0 100 24" fill="none" xmlns="http://www.w3.org/2000/svg">
<path fill-rule="evenodd" clip-rule="evenodd" d="M8.36441 0C5.96186 0 4.75424 7.86744e-07 3.45763 0.393443C2.0339 0.913803 0.915256 2.03067 0.406781 3.45214C1.54568e-06 4.7467 0 5.95241 0 8.36383V15.6235C0 18.0476 7.87994e-07 19.2279 0.394069 20.5352C0.902543 21.9566 2.0339 23.0735 3.44492 23.5939C4.74153 24 5.94915 24 8.3517 24H15.6356C18.0508 24 19.2458 24 20.5424 23.5939C21.9661 23.0735 23.0847 21.9566 23.5932 20.5352C24 19.2406 24 18.0349 24 15.6235V8.37652C24 5.9651 24 4.77208 23.5932 3.46483C23.0847 2.04336 21.9534 0.926496 20.5424 0.406136C19.2331 1.54323e-06 18.0381 0 15.6229 0H8.36441ZM10.6653 9.07456C10.6653 9.96298 11.7076 10.2676 12.9153 10.7118C15.0254 11.4225 16.7542 12.2983 16.7542 14.3543C16.7542 16.6007 15.0127 18.1237 12.1653 18.3014L11.911 19.5071C11.8602 19.7356 11.6568 19.8879 11.428 19.8879H9.63559C9.61017 19.8879 9.57203 19.8879 9.54661 19.8752C9.27966 19.8244 9.1017 19.5579 9.16526 19.2914L9.44491 18.0222C8.36441 17.743 7.38559 17.2099 6.57204 16.4484L6.55932 16.4358C6.38136 16.2454 6.38136 15.9408 6.57204 15.7631L7.56356 14.7858C7.75424 14.5955 8.05932 14.5955 8.23729 14.7858C9.15254 15.6489 10.3602 16.1312 11.6186 16.1058C12.9153 16.1058 13.7924 15.56 13.7924 14.6843C13.7924 13.8086 12.9153 13.5801 11.2373 12.9582C9.47034 12.3363 7.80508 11.4352 7.80508 9.35378C7.80508 6.94236 9.82627 5.76203 12.2034 5.64781L12.4576 4.4294C12.5085 4.20095 12.6992 4.04865 12.928 4.04865H14.7203C14.7585 4.04865 14.7839 4.04865 14.822 4.06134C15.089 4.11211 15.2542 4.36594 15.2034 4.63247L14.9237 6.00317C15.839 6.29508 16.678 6.77737 17.4025 7.38657C17.4153 7.39926 17.4153 7.39926 17.428 7.41195C17.6186 7.60233 17.6059 7.89424 17.428 8.08461L16.5 9.01111C16.3093 9.18879 16.0169 9.20148 15.8263 9.0238C14.9237 8.26229 13.7797 7.84347 12.5975 7.84347C11.6314 7.85616 10.6653 8.18615 10.6653 9.07456Z" fill="#00B843"/>
<path d="M34.544 12.756C34.544 15.236 35.888 16.868 37.776 16.868C39.12 16.868 40.096 16.052 40.448 14.708L42.368 15.364C41.696 17.396 40.096 18.676 37.776 18.676C34.72 18.676 32.496 16.244 32.496 12.756C32.496 9.268 34.72 6.836 37.776 6.836C40.096 6.836 41.696 8.116 42.368 10.148L40.448 10.804C40.096 9.46 39.12 8.644 37.776 8.644C35.888 8.644 34.544 10.276 34.544 12.756ZM45.5839 18.644C43.9839 18.644 42.7519 17.668 42.7519 16.164C42.7519 14.564 43.9519 13.86 45.5679 13.524L47.8879 13.044V12.9C47.8879 12.1 47.4719 11.604 46.4479 11.604C45.5359 11.604 45.0559 12.02 44.8319 12.836L43.0239 12.42C43.4399 11.028 44.6719 9.94 46.5279 9.94C48.5439 9.94 49.7599 10.9 49.7599 12.836V16.452C49.7599 16.932 49.9679 17.076 50.4959 17.012V18.5C49.1039 18.66 48.3679 18.388 48.0799 17.7C47.5519 18.292 46.6719 18.644 45.5839 18.644ZM47.8879 15.54V14.516L46.0799 14.9C45.2639 15.076 44.6559 15.332 44.6559 16.084C44.6559 16.74 45.1359 17.108 45.8719 17.108C46.8959 17.108 47.8879 16.564 47.8879 15.54ZM50.6599 16.9L52.0999 15.748C52.5959 16.564 53.5559 17.108 54.5319 17.108C55.3479 17.108 56.0999 16.82 56.0999 16.068C56.0999 15.348 55.3959 15.268 54.0679 14.996C52.7399 14.724 51.2199 14.388 51.2199 12.596C51.2199 11.06 52.5639 9.94 54.4999 9.94C55.9719 9.94 57.2839 10.596 57.8919 11.524L56.5959 12.692C56.1159 11.94 55.3159 11.508 54.3879 11.508C53.6039 11.508 53.0919 11.86 53.0919 12.42C53.0919 13.028 53.6999 13.14 54.7559 13.364C56.1799 13.668 57.9719 13.972 57.9719 15.892C57.9719 17.588 56.4199 18.676 54.5159 18.676C52.9639 18.676 51.4119 18.052 50.6599 16.9ZM59.1261 18.5V7.012H61.0461V10.996C61.5261 10.436 62.2781 9.94 63.3661 9.94C65.1261 9.94 66.1821 11.156 66.1821 12.964V18.5H64.2621V13.524C64.2621 12.484 63.8461 11.732 62.7901 11.732C61.9261 11.732 61.0461 12.372 61.0461 13.572V18.5H59.1261ZM74.3026 7.012H76.6226L80.9746 18.5H78.9106L77.9186 15.876H72.9586L71.9826 18.5H69.9506L74.3026 7.012ZM75.4226 9.284L73.6306 14.084H77.2466L75.4226 9.284ZM86.0021 18.676C84.9141 18.676 84.1141 18.244 83.5861 17.62V21.38H81.6661V10.1H83.5861V10.996C84.1141 10.372 84.9141 9.94 86.0021 9.94C88.3541 9.94 89.6981 11.924 89.6981 14.308C89.6981 16.692 88.3541 18.676 86.0021 18.676ZM83.5381 14.068V14.564C83.5381 16.116 84.4341 16.996 85.6181 16.996C87.0101 16.996 87.7621 15.908 87.7621 14.308C87.7621 12.708 87.0101 11.62 85.6181 11.62C84.4341 11.62 83.5381 12.484 83.5381 14.068ZM95.1977 18.676C94.1097 18.676 93.3097 18.244 92.7817 17.62V21.38H90.8617V10.1H92.7817V10.996C93.3097 10.372 94.1097 9.94 95.1977 9.94C97.5497 9.94 98.8937 11.924 98.8937 14.308C98.8937 16.692 97.5497 18.676 95.1977 18.676ZM92.7337 14.068V14.564C92.7337 16.116 93.6297 16.996 94.8137 16.996C96.2057 16.996 96.9577 15.908 96.9577 14.308C96.9577 12.708 96.2057 11.62 94.8137 11.62C93.6297 11.62 92.7337 12.484 92.7337 14.068Z" fill="white"/>
</svg>
