<svg width="25" height="25" viewBox="0 0 25 25" fill="none" xmlns="http://www.w3.org/2000/svg">
<g clip-path="url(#clip0_3568_5022)">
<path fill-rule="evenodd" clip-rule="evenodd" d="M10.5072 3.875C9.65031 3.875 8.8343 4.24144 8.265 4.88191L2.34112 11.5463C1.66754 12.304 1.66754 13.446 2.34112 14.2037L8.265 20.8681C8.8343 21.5086 9.65031 21.875 10.5072 21.875H21.16C22.8169 21.875 24.16 20.5319 24.16 18.875V6.875C24.16 5.21815 22.8169 3.875 21.16 3.875H10.5072ZM12.8671 9.16789C12.4766 8.77737 11.8434 8.77737 11.4529 9.16789C11.0624 9.55842 11.0624 10.1916 11.4529 10.5821L13.7458 12.875L11.4529 15.1679C11.0624 15.5584 11.0624 16.1916 11.4529 16.5821C11.8434 16.9726 12.4766 16.9726 12.8671 16.5821L15.16 14.2892L17.4529 16.5821C17.8434 16.9726 18.4766 16.9726 18.8671 16.5821C19.2577 16.1916 19.2577 15.5584 18.8671 15.1679L16.5742 12.875L18.8671 10.5821C19.2577 10.1916 19.2577 9.55842 18.8671 9.16789C18.4766 8.77737 17.8434 8.77737 17.4529 9.16789L15.16 11.4608L12.8671 9.16789Z" fill="white"/>
</g>
<defs>
<clipPath id="clip0_3568_5022">
<rect width="22.3241" height="18" fill="white" transform="translate(1.83594 3.875)"/>
</clipPath>
</defs>
</svg>
