<svg width="240" height="150" viewBox="0 0 240 150" fill="none" xmlns="http://www.w3.org/2000/svg">
  <path d="M120 18C79.1 18 29.6 58.4 14.5 83.7c-3.9 6.5 0.3 16.3 7.8 16.3h195.4c7.5 0 11.7-9.8 7.8-16.3C210.4 58.4 160.9 18 120 18z" fill="#000000"/>
  <path d="M53.2 43.5c-15.4 0-27.9 14.7-27.9 32.9s12.5 32.9 27.9 32.9c7.2 0 13.7-3.2 18.7-8.5 4.9 5.3 11.5 8.5 18.7 8.5 15.4 0 27.9-14.7 27.9-32.9S106 43.5 90.6 43.5c-7.2 0-13.7 3.2-18.7 8.5-5-5.3-11.5-8.5-18.7-8.5z" fill="#000000"/>
  <path d="M149.4 43.5c-15.4 0-27.9 14.7-27.9 32.9s12.5 32.9 27.9 32.9c7.2 0 13.7-3.2 18.7-8.5 4.9 5.3 11.5 8.5 18.7 8.5 15.4 0 27.9-14.7 27.9-32.9s-12.5-32.9-27.9-32.9c-7.2 0-13.7 3.2-18.7 8.5-5-5.3-11.5-8.5-18.7-8.5z" fill="#000000"/>
  <circle cx="44" cy="65" r="6" fill="#96151D"/>
  <circle cx="81" cy="65" r="6" fill="#96151D"/>
  <circle cx="141" cy="65" r="6" fill="#96151D"/>
  <circle cx="179" cy="65" r="6" fill="#96151D"/>
  <circle cx="210" cy="45" r="4" fill="#96151D"/>
  <circle cx="30" cy="45" r="4" fill="#96151D"/>
  <circle cx="15" cy="30" r="3" fill="#96151D"/>
  <circle cx="225" cy="30" r="3" fill="#96151D"/>
</svg> 