<svg width="316" height="316" viewBox="0 0 316 316" fill="none" xmlns="http://www.w3.org/2000/svg">
<path fill-rule="evenodd" clip-rule="evenodd" d="M219.288 116.06L203.932 128.566C202.538 129.703 200.636 129.45 199.621 128.061C191.76 118.46 179.575 113.028 166.261 113.028C151.413 113.028 142.157 119.471 142.157 128.566C141.903 136.145 149.13 140.188 171.333 144.988C199.368 150.925 212.174 162.547 212.174 182.127C212.174 206.634 192.128 224.699 160.796 226.72L157.753 241.247C157.499 242.637 156.231 243.647 154.71 243.647H130.605C128.577 243.647 127.182 241.752 127.562 239.858L131.366 223.688C115.884 219.267 103.331 210.677 96.1036 200.192C95.216 198.802 95.4696 197.034 96.7376 196.023L113.488 183.012C114.882 181.875 116.911 182.254 117.926 183.643C126.801 196.023 140.508 203.35 157.005 203.35C171.853 203.35 183.011 196.149 183.011 185.791C183.011 177.832 177.432 174.169 158.526 170.253C126.307 163.305 113.488 151.431 113.488 131.85C113.488 109.112 132.647 92.0582 161.569 89.7843L164.739 74.7517C164.993 73.3622 166.261 72.3516 167.782 72.3516H191.506C193.408 72.3516 194.93 74.1201 194.549 76.015L190.872 92.8161C203.298 96.6058 213.455 103.427 219.795 111.891C220.809 113.154 220.556 115.049 219.288 116.06Z" fill="white"/>
</svg>
