<svg width="158" height="158" viewBox="0 0 158 158" fill="none" xmlns="http://www.w3.org/2000/svg">
<path fill-rule="evenodd" clip-rule="evenodd" d="M109.644 58.0299L101.966 64.2829C101.269 64.8514 100.318 64.7251 99.8107 64.0303C95.88 59.23 89.7873 56.514 83.1304 56.514C75.7064 56.514 71.0783 59.7353 71.0783 64.2829C70.9515 68.0727 74.5652 70.0939 85.6664 72.494C99.6839 75.4627 106.087 81.2736 106.087 91.0637C106.087 103.317 96.0638 112.349 80.3979 113.36L78.8764 120.624C78.7496 121.318 78.1156 121.824 77.3548 121.824H65.3026C64.2883 121.824 63.5909 120.876 63.7811 119.929L65.683 111.844C57.942 109.633 51.6655 105.338 48.0518 100.096C47.608 99.4011 47.7348 98.5168 48.3688 98.0115L56.7438 91.5058C57.4412 90.9374 58.4556 91.1269 58.9628 91.8217C63.4007 98.0115 70.2541 101.675 78.5023 101.675C85.9263 101.675 91.5054 98.0747 91.5054 92.8954C91.5054 88.9162 88.7159 87.0845 79.2631 85.1265C63.1534 81.6525 56.7438 75.7153 56.7438 65.9252C56.7438 54.556 66.3234 46.0291 80.7847 44.8922L82.3696 37.3759C82.4964 36.6811 83.1304 36.1758 83.8912 36.1758H95.7531C96.7041 36.1758 97.4649 37.0601 97.2747 38.0075L95.4362 46.4081C101.649 48.3029 106.728 51.7137 109.897 55.9455C110.405 56.5772 110.278 57.5246 109.644 58.0299Z" fill="white"/>
</svg>
