<svg width="264" height="266" viewBox="0 0 264 266" fill="none" xmlns="http://www.w3.org/2000/svg">
<g clip-path="url(#clip0_3460_6078)">
<path d="M109.671 3.26261C110.492 1.38698 111.795 0.210732 113.875 0.0782715C116.286 -0.0753822 117.84 1.14855 118.823 3.24142C120.642 -0.838352 125.954 -1.16155 128.082 3.20433C129.038 1.15385 130.564 -0.0435918 132.916 0.0729731C134.996 0.173643 136.338 1.3128 137.217 3.27851C138.173 1.3234 139.574 0.0570779 141.812 0.0570779C144.071 0.0570779 145.521 1.23862 146.396 3.20963C148.351 0.396176 150.121 -0.467464 152.451 0.237224C154.526 0.867734 155.813 2.66389 155.759 4.84684C155.71 6.80724 154.303 8.57691 152.381 9.09616C149.98 9.74786 148.144 8.83653 146.569 6.31979C145.597 7.2841 144.593 8.2855 143.588 9.2869C145.815 10.2777 146.939 12.1109 146.455 14.7178C146.135 16.4503 144.5 17.8756 142.692 18.1617C140.362 18.5273 138.803 17.6637 137.369 15.3165C136.392 16.2808 135.376 17.2716 134.372 18.2624C136.24 19.0783 137.478 20.5937 137.359 22.872C137.25 24.9225 136.05 26.2736 133.997 27.0895C136.099 27.9585 137.369 29.3943 137.369 31.5773C137.369 33.7602 136.147 35.2173 134.018 36.065C136.457 37.1565 137.712 38.8679 137.266 41.4959C136.962 43.2709 135.403 44.7756 133.557 45.1253C131.374 45.5386 129.804 44.6802 127.996 42.0469C126.909 44.3623 125.106 45.4962 122.516 45.1041C120.653 44.8233 119.105 43.2232 118.806 41.4747C118.41 39.1328 119.322 37.5592 122 36.065C119.54 34.9948 118.383 33.2039 118.823 30.6024C119.127 28.8115 120.696 27.3121 122.711 27.0418C125.226 26.7028 126.937 27.8949 127.903 29.9136C128.93 28.9228 129.956 27.9267 130.928 26.9942C126.98 25.3464 126.692 20.1539 131.194 18.0928C129.125 17.2345 127.909 15.7721 127.92 13.621C127.93 11.4963 129.12 10.0499 130.939 9.2975C129.951 8.33319 128.946 7.35828 127.909 6.35158C127.143 8.03647 125.671 9.2816 123.472 9.2816C121.261 9.2816 119.746 8.11595 118.85 5.99129C117.889 8.14774 116.324 9.37697 114 9.271C111.92 9.17563 110.492 8.03118 109.802 6.33039C108.927 7.13575 108.096 8.11595 107.059 8.78885C105.946 9.50943 104.615 9.45115 103.344 8.97429C101.319 8.21132 100.173 6.38867 100.336 4.16864C100.471 2.3248 102.03 0.58162 103.904 0.173643C106.288 -0.350899 108.031 0.571023 109.677 3.27851L109.671 3.26261ZM128.05 33.437C127.137 34.3007 126.106 35.2703 125.264 36.065C126.144 36.9181 127.165 37.9089 128.028 38.746C128.941 37.8771 129.972 36.8916 130.82 36.0862C129.956 35.2597 128.93 34.2795 128.05 33.437ZM137.364 11.9361C137.663 11.5175 138.005 10.887 138.494 10.4102C139.004 9.91211 139.661 9.55712 140.085 9.2657C139.096 8.2802 138.081 7.2735 137.261 6.45755C136.359 7.34238 135.355 8.32259 134.507 9.14914C135.365 9.98629 136.365 10.9665 137.364 11.9414V11.9361Z" fill="white"/>
<path d="M79.4526 9.37159C81.8261 10.3584 83.1661 11.8469 83.0759 14.1749C82.9918 16.3231 81.6639 17.6698 79.8071 18.4167C80.7205 19.3218 81.8321 20.1777 82.5772 21.2409C83.4004 22.4077 83.2742 23.7925 82.6914 25.0792C81.784 27.0747 79.6209 28.1488 77.1212 27.898C74.8919 27.6744 73.1073 26.0552 72.6747 23.8634C72.2721 21.8134 73.5399 19.9106 76.298 18.5857C74.0567 17.6861 72.6566 16.2195 72.6446 14.0223C72.6326 11.8305 73.9185 10.3203 76.2619 9.4043C73.1914 7.8886 71.7553 5.75681 73.1614 2.68725C74.0567 0.740835 76.298 -0.2351 78.7315 0.053864C80.7806 0.299211 82.6253 1.88579 83.0158 3.73952C83.5086 6.07304 82.3729 7.92677 79.4526 9.36614V9.37159Z" fill="white"/>
<path d="M185.312 55.7484C183.198 54.8239 181.959 53.3798 181.976 51.0768C181.992 48.7738 183.257 47.3569 185.339 46.4653C183.76 45.8745 182.695 44.8406 182.105 43.1886C181.1 45.4642 179.542 46.7279 177.082 46.5856C175.308 46.4817 173.957 45.415 173.059 43.5277C172.075 44.5288 171.031 45.5955 170.025 46.6185C171.767 47.3843 173.043 48.8449 173.026 51.1588C173.01 53.4509 171.718 54.8677 169.701 55.7539C172.291 57.0339 173.464 59.0853 172.956 61.35C172.453 63.5764 170.572 65.1464 168.382 65.1738C166.186 65.1957 164.272 63.664 163.726 61.454C163.164 59.1564 164.326 57.0777 166.949 55.7539C164.802 54.8075 163.515 53.2649 163.645 50.8306C163.758 48.6917 164.98 47.3405 166.711 46.6075C165.927 45.8581 165.002 45.1579 164.31 44.2662C163.558 43.2925 163.461 42.0617 163.715 40.8582C164.126 38.8834 165.716 37.4064 167.668 37.1056C169.798 36.7719 171.55 37.8605 172.886 40.344C173.313 39.7204 173.665 39.0257 174.189 38.4896C174.703 37.9644 175.384 37.6088 176.011 37.1603C174.086 36.3124 172.837 34.901 172.81 32.6363C172.783 30.3333 174.021 28.8946 176.125 27.9373C174.07 27.0292 172.837 25.6124 172.805 23.3587C172.772 21.0666 174.032 19.6388 175.763 18.8128C174.751 17.7735 173.746 16.7341 172.81 15.7713C171.085 19.9397 165.505 19.8631 163.742 15.4978C162.239 18.2439 160.298 19.2833 157.897 18.6378C155.88 18.0962 154.42 16.1214 154.442 13.9716C154.463 11.8765 155.934 9.93997 157.902 9.42029C160.314 8.78573 162.244 9.81962 163.612 12.3305C164.575 11.3404 165.586 10.2955 166.57 9.27806C163.958 7.50568 163.093 5.69501 163.839 3.31542C164.483 1.26952 166.338 -0.0542982 168.457 0.00587528C170.636 0.0715191 172.356 1.48833 172.913 3.67099C173.481 5.91382 172.448 7.85578 170.042 9.26165C171.031 10.2627 172.048 11.2911 172.935 12.1883C173.562 11.5373 174.243 10.4378 175.227 9.9345C176.195 9.4367 177.487 9.31636 178.591 9.44217C180.44 9.65552 181.867 11.4005 182.181 13.3808C182.511 15.4595 181.429 17.2702 179.196 18.5284C180.186 19.5294 181.213 20.5688 182.105 21.4714C182.722 20.8204 183.414 19.8686 184.311 19.2012C185.242 18.512 186.388 18.3533 187.577 18.6268C189.67 19.1082 191.125 20.711 191.373 22.8937C191.606 24.9177 190.384 26.794 188.005 27.9209C190.086 28.7962 191.352 30.2896 191.363 32.5105C191.373 34.7588 190.173 36.285 187.988 37.1822C190.108 38.0848 191.384 39.6 191.363 41.8647C191.341 44.0966 190.113 45.6064 187.967 46.4653C190.119 47.3515 191.363 48.8558 191.363 51.1041C191.363 53.3469 190.13 54.8677 188.048 55.7046C190.881 57.3075 191.876 59.2494 191.184 61.7275C190.611 63.757 188.626 65.223 186.523 65.1628C184.382 65.1027 182.414 63.4397 182.035 61.3664C181.586 58.9267 182.695 56.9792 185.312 55.7429V55.7484ZM182.078 39.9884C182.949 39.1077 183.987 38.0629 184.987 37.0454C183.717 36.5914 182.695 35.5411 182.084 33.8562C181.462 35.5028 180.445 36.5914 179.153 37.0454C180.148 38.0465 181.202 39.1077 182.078 39.983V39.9884ZM182.062 30.7053C182.96 29.8027 183.987 28.7743 184.814 27.9428C183.938 27.0566 182.927 26.0282 182.067 25.1529C181.224 26.0008 180.191 27.0457 179.326 27.9209C180.197 28.8126 181.219 29.8519 182.062 30.7108V30.7053Z" fill="white"/>
<path d="M182.166 4.58959C182.187 2.01414 184.2 0.00390625 186.759 0.00390625C189.328 0.00390625 191.437 2.13678 191.4 4.69091C191.363 7.19704 189.243 9.30859 186.759 9.31392C184.205 9.31392 182.139 7.19704 182.16 4.58959H182.166Z" fill="white"/>
<path d="M155.753 23.2854C155.759 25.9278 153.457 27.9509 150.464 27.9349C147.562 27.9189 145.211 25.8584 145.199 23.3228C145.187 20.7818 147.671 18.5986 150.543 18.6252C153.433 18.6519 155.753 20.7285 155.759 23.2854H155.753Z" fill="white"/>
<path d="M163.676 32.5646C163.692 35.2139 161.686 37.2436 159.064 37.2436C156.506 37.2436 154.457 35.2085 154.441 32.6554C154.426 30.0808 156.538 27.9336 159.08 27.9336C161.601 27.9336 163.665 30.0167 163.681 32.5646H163.676Z" fill="white"/>
<path d="M95.7074 45.2148C93.1425 45.2148 91.0981 43.1935 91.0821 40.632C91.0662 38.0117 93.116 35.9102 95.6967 35.9102C98.2775 35.9102 100.333 38.001 100.322 40.6213C100.311 43.1828 98.2722 45.2148 95.7074 45.2202V45.2148Z" fill="white"/>
<path d="M76.1293 91.4236C74.0046 90.5595 72.8564 89.1194 72.7706 87.038C72.6794 84.7664 73.8759 83.2122 76.0596 82.234C73.9724 81.2884 72.7438 79.7939 72.7652 77.5821C72.7921 75.4084 73.9671 73.9193 76.1025 73.0281C73.9993 72.1314 72.7599 70.637 72.7652 68.4197C72.7652 66.2025 73.9724 64.6971 76.1025 63.8222C73.9295 62.8766 72.674 61.3169 72.7706 58.9856C72.8564 56.8553 74.0744 55.4206 76.0435 54.638C73.3822 53.0131 72.3896 51.3067 72.835 49.171C73.2696 47.0951 74.8041 45.5626 76.7249 45.2908C78.9622 44.9702 80.6738 46.0245 81.9722 48.5189C83.6087 45.7691 85.4114 44.7854 87.681 45.405C89.8057 45.9864 91.1792 47.7635 91.1899 49.9481C91.2007 52.1599 89.8754 53.9424 87.7668 54.5511C85.4544 55.2195 83.7052 54.2848 82.1171 51.7089C81.1245 52.7088 80.0836 53.7577 79.1017 54.7413C80.7275 55.4206 81.9508 56.7303 82.0795 58.8606C82.2298 61.2898 80.9904 62.8277 79.1178 63.67C80.1104 64.6754 81.1406 65.7079 82.1278 66.7079C83.0507 64.5504 84.8427 63.382 87.4717 63.7733C89.2048 64.0287 90.7232 65.5884 91.1202 67.3926C91.6031 69.5935 90.7232 71.2184 88.2658 72.8977C89.2423 73.8976 90.2456 74.9301 91.206 75.9138C92.7084 73.4139 94.3019 72.5173 96.668 72.9955C98.46 73.3596 100.005 75.0443 100.268 76.9246C100.574 79.1309 99.5278 80.908 97.0758 82.2014C99.6404 83.522 100.923 85.5055 100.027 88.3749C99.4151 90.3258 97.9396 91.4236 95.9061 91.5323C93.5775 91.6573 92.043 90.44 91.088 88.1956C90.2081 90.2661 88.7916 91.5269 86.6025 91.5486C84.3813 91.5703 82.9058 90.3585 82.1225 88.4999C81.1567 89.5052 80.1695 90.5324 79.1769 91.5649C80.8079 92.3692 82.1064 93.7495 82.0903 96.0265C82.0742 98.3036 80.8723 99.7328 79.1071 100.494C80.089 101.488 81.1191 102.537 82.1117 103.537C83.657 100.961 85.4222 100.026 87.7937 100.689C89.7735 101.244 91.1578 103.037 91.1899 105.102C91.2275 107.346 89.9613 109.123 87.8634 109.781C85.5509 110.504 83.7643 109.575 82.1117 106.961C81.1513 107.944 80.1426 108.977 79.1447 109.993C80.8133 110.754 82.101 112.161 82.0903 114.466C82.0795 116.753 80.8509 118.177 79.091 118.927C80.0782 119.911 81.1191 120.949 82.0098 121.835C82.6429 121.199 83.4048 120.21 84.3706 119.514C85.4168 118.764 86.6991 118.764 87.9385 119.161C90.0096 119.824 91.206 121.601 91.1524 123.905C91.1041 126.03 89.7252 127.725 87.5951 128.274C85.3739 128.85 83.5496 127.834 82.1171 125.367C81.1299 126.367 80.1051 127.41 79.2359 128.296C79.8851 128.937 80.824 129.666 81.5108 130.595C82.262 131.611 82.262 132.899 81.9615 134.105C81.4357 136.214 79.4398 137.692 77.3204 137.632C75.1314 137.567 73.3554 136.018 72.8618 133.752C72.3789 131.519 73.5164 129.546 76.0864 128.274C74.0636 127.405 72.792 125.948 72.7706 123.726C72.7545 121.492 73.9563 119.981 75.802 119.204C74.8094 118.221 73.7739 117.188 72.7545 116.183C71.9926 117.927 70.5869 119.172 68.3656 119.177C66.1658 119.183 64.7654 117.965 63.8211 115.884C62.8661 117.911 61.4765 119.199 59.2498 119.177C57.0607 119.161 55.6496 117.965 54.8663 116.166C53.8576 117.183 52.8436 118.21 51.969 119.09C52.6021 119.721 53.5518 120.454 54.2225 121.389C54.92 122.362 55.0165 123.568 54.7161 124.785C54.2493 126.698 52.6182 128.187 50.6974 128.399C48.5459 128.633 46.7485 127.486 45.7827 125.351C44.7955 126.351 43.7653 127.399 42.7566 128.421C44.495 129.144 45.7237 130.611 45.7559 132.812C45.7827 135.051 44.5755 136.556 42.5474 137.431C43.1966 137.893 43.8726 138.257 44.3877 138.779C44.8974 139.295 45.2515 139.969 45.67 140.578C46.9792 138.045 48.6907 137.051 51.073 137.442C52.9294 137.747 54.3941 139.29 54.7858 141.36C55.1882 143.48 54.1742 145.224 51.8617 146.572C52.8436 147.55 53.8522 148.556 54.8663 149.566C55.6389 147.789 57.0929 146.561 59.2927 146.577C61.4496 146.594 62.9036 147.784 63.6602 149.588C64.642 148.594 65.6293 147.594 66.6219 146.583C64.1645 145.262 62.9036 143.127 64.1377 140.067C64.921 138.127 66.9223 137.143 69.1114 137.42C70.9303 137.649 72.6096 139.263 72.9315 141.1C73.3554 143.491 72.4004 145.241 69.7928 146.697C72.3092 147.876 73.5003 149.822 72.8457 152.539C72.3682 154.517 70.9732 155.729 68.9397 155.968C66.4824 156.256 64.8566 155.028 63.805 152.664C62.8983 154.838 61.396 156.05 59.2176 156.023C57.0876 156.001 55.596 154.827 54.8717 152.99C53.8844 153.995 52.8972 155.006 51.8939 156.028C54.1312 157.158 55.3921 159.098 54.6195 161.892C54.1044 163.756 52.7684 164.924 50.8208 165.163C48.3205 165.468 46.6626 164.267 45.67 161.979C43.819 164.848 41.9894 165.766 39.6823 165.027C37.6702 164.386 36.3987 162.576 36.4255 160.397C36.4523 158.327 37.8419 156.479 39.7735 155.941C42.1235 155.289 43.8834 156.196 45.5037 158.783C46.4641 157.794 47.4621 156.772 48.4547 155.745C46.5714 154.87 45.3749 153.311 45.5252 150.909C45.6432 149.061 46.6251 147.757 48.4922 146.844C47.5211 145.866 46.5124 144.849 45.4822 143.811C44.7365 145.561 43.2502 146.844 41.0397 146.822C38.8667 146.8 37.3698 145.588 36.6723 143.762C35.6851 144.773 34.671 145.811 33.6945 146.817C35.948 148.181 36.9727 149.941 36.624 152.012C36.2699 154.093 34.7622 155.604 32.6858 155.957C30.5021 156.332 28.9139 155.365 27.4224 152.762C25.9254 155.484 23.9993 156.517 21.617 155.87C19.6104 155.327 18.1993 153.398 18.2154 151.224C18.2315 149.094 19.7499 147.148 21.7565 146.686C24.1388 146.137 26.0381 147.181 27.3902 149.8C27.7926 149.202 28.1252 148.55 28.6081 148.045C29.1178 147.518 29.7724 147.143 30.4323 146.654C28.6188 145.741 27.3151 144.371 27.3204 142.116C27.3258 139.833 28.5276 138.399 30.3036 137.627C29.3217 136.627 28.2808 135.573 27.2882 134.562C26.5478 136.361 25.0616 137.643 22.7974 137.605C20.6352 137.573 19.1972 136.328 18.4675 134.546C17.4803 135.556 16.4555 136.605 15.5702 137.513C16.1873 138.1 17.2174 138.73 17.711 139.649C18.2154 140.589 18.4193 141.828 18.3495 142.915C18.2261 144.849 16.5467 146.366 14.4757 146.762C12.4154 147.159 10.7038 146.126 9.35175 143.768C8.40208 144.762 7.42022 145.789 6.41689 146.833C8.09089 147.621 9.33566 149.034 9.33566 151.278C9.33566 153.512 8.14991 154.93 6.07887 155.876C8.08552 156.843 9.35175 158.245 9.33566 160.511C9.31956 162.745 8.13381 164.163 6.08423 165.076C8.06406 166.038 9.35175 167.435 9.33566 169.712C9.32493 171.983 8.11235 173.413 6.04131 174.304C8.24112 175.298 9.50735 176.863 9.31419 179.336C9.15323 181.418 7.95139 182.711 6.32568 183.385C7.11975 184.189 8.09625 184.95 8.78302 185.928C9.52881 186.988 9.51271 188.297 9.13714 189.542C8.48793 191.678 6.6315 192.949 4.37268 192.852C2.34456 192.765 0.616908 191.248 0.134024 189.129C-0.391784 186.808 0.622274 184.972 3.30497 183.51C1.28222 182.662 0.0428124 181.189 0.0159855 178.999C-0.0108414 176.771 1.16954 175.239 3.37472 174.326C1.26075 173.44 0.0374471 171.962 0.0159855 169.782C-0.00547602 167.565 1.16418 166.022 3.37472 165.12C1.23393 164.207 0.0213509 162.712 0.0159855 160.517C0.0106201 158.343 1.18564 156.843 3.3157 155.908C1.22856 154.968 -0.00547602 153.474 0.0159855 151.267C0.0320817 149.088 1.2071 147.594 3.30497 146.719C0.767139 145.453 -0.499091 143.556 0.214505 140.719C0.665197 138.931 2.32847 137.567 4.10977 137.404C6.46518 137.187 8.00504 138.154 9.09421 140.404C10.0546 139.42 11.0687 138.377 12.072 137.35C9.86146 136.252 8.56841 134.345 9.32493 131.47C9.79708 129.682 11.4925 128.318 13.247 128.182C15.5971 127.997 17.1369 128.992 18.3227 131.492C19.2187 129.437 20.6244 128.139 22.9262 128.166C25.1796 128.187 26.5585 129.47 27.2882 131.176C28.2755 130.176 29.311 129.133 30.3036 128.128C28.4954 127.323 27.2346 125.829 27.3258 123.449C27.4116 121.269 28.6403 119.905 30.6309 119.058C28.5652 118.15 27.299 116.715 27.3204 114.395C27.3419 112.118 28.6028 110.705 30.6523 109.83C28.7047 109.031 27.4975 107.732 27.3365 105.656C27.1434 103.195 28.415 101.619 30.2821 100.765C29.2842 99.7437 28.2594 98.6894 27.2936 97.7003C26.0381 100.075 24.4768 101.021 22.0677 100.678C20.2542 100.423 18.7036 98.8959 18.2798 96.945C17.8183 94.8092 18.7358 93.1409 21.3917 91.3693C19.4172 90.4617 18.1993 89.0107 18.2207 86.7609C18.2422 84.5599 19.4494 83.1361 21.4883 82.2068C19.0631 81.0547 17.8613 79.2777 18.2958 76.6746C18.6339 74.6639 20.2542 73.1966 22.1697 72.9357C24.4875 72.626 26.0757 73.5824 27.4331 76.1909C28.3023 74.1748 29.7027 72.9031 31.8971 72.8814C34.1291 72.8596 35.5992 74.0606 36.3772 75.9029C37.2249 75.0714 38.0083 74.0932 38.9955 73.4031C40.0578 72.664 41.3455 72.7129 42.5688 73.1259C44.5487 73.7943 45.8793 75.767 45.7666 77.8158C45.6432 80.0168 44.0872 81.8155 41.9518 82.2286C39.6232 82.6796 37.7829 81.5982 36.6616 79.2559C35.7172 80.2504 34.7193 81.2938 33.7106 82.3481C35.4114 83.147 36.6616 84.5925 36.6455 86.8315C36.6294 89.027 35.4329 90.478 33.3565 91.4019C35.4114 92.3474 36.6669 93.8039 36.6401 96.0483C36.6133 98.2547 35.4382 99.7111 33.6301 100.466C34.612 101.461 35.6475 102.504 36.5703 103.434C37.1337 102.814 37.7346 101.765 38.636 101.26C39.5535 100.744 40.7983 100.483 41.8445 100.608C43.9853 100.858 45.4286 102.548 45.7398 104.694C46.0349 106.765 44.8652 108.607 42.7244 109.694C43.7117 110.689 44.7633 111.743 45.7398 112.727C47.0919 109.129 52.366 108.14 54.7053 112.862C57.152 108.026 62.3832 109.287 63.7782 113.025C64.7225 111.015 66.1175 109.71 68.3227 109.721C70.5332 109.732 71.998 110.922 72.7438 112.759C73.7364 111.748 74.7558 110.71 75.7537 109.694C74.0314 108.971 72.7974 107.504 72.7652 105.314C72.733 103.08 73.9295 101.564 76.1079 100.629C74.01 99.7491 72.7867 98.271 72.7652 96.0863C72.7384 93.8582 73.9456 92.3474 76.1293 91.4019V91.4236ZM91.0719 79.4624C90.2456 80.3102 89.2477 81.3428 88.3839 82.2286C89.2423 83.1198 90.2456 84.1632 91.0505 85.0055C91.9357 84.1089 92.9444 83.0926 93.7814 82.2449C92.9015 81.3428 91.9196 80.3374 91.0665 79.4624H91.0719ZM30.1104 82.234C29.2412 81.3265 28.2433 80.2885 27.4331 79.4407C26.6015 80.2993 25.6035 81.3319 24.7343 82.234C25.5928 83.1198 26.5961 84.1632 27.4116 85.011C28.2647 84.1306 29.2466 83.1198 30.1104 82.234ZM81.9883 84.9947C82.8307 84.136 83.8447 83.1089 84.6817 82.2503C83.7964 81.321 82.7985 80.2776 82.0044 79.4516C81.1352 80.3374 80.1265 81.3645 79.2842 82.2231C80.148 83.1089 81.1299 84.1197 81.9883 85.0001V84.9947ZM30.1051 91.4345C29.2466 90.5378 28.2486 89.4998 27.4385 88.6575C26.5907 89.527 25.5874 90.5541 24.7289 91.4345C25.5874 92.3203 26.5961 93.3582 27.4385 94.2223C28.2486 93.3746 29.2466 92.3366 30.1104 91.4345H30.1051ZM36.3826 134.573C35.9265 135.812 34.891 136.877 33.6623 137.339C34.6764 138.382 35.7065 139.431 36.5113 140.257C37.3859 139.382 38.416 138.355 39.253 137.518C38.3785 136.622 37.3698 135.584 36.3826 134.573ZM79.3056 73.0172C80.1748 73.9248 81.1567 74.9519 81.9561 75.7888C82.8468 74.8921 83.8608 73.8813 84.6978 73.039C83.8233 72.1314 82.8146 71.0934 81.9883 70.2402C81.1513 71.1097 80.148 72.1423 79.3056 73.0172ZM48.5137 119.221C47.5265 118.226 46.4856 117.183 45.6378 116.33C44.7311 117.221 43.7009 118.237 42.8747 119.047C43.7653 119.954 44.774 120.987 45.7666 121.998C46.2388 120.699 47.2796 119.666 48.5137 119.221ZM36.5167 116.313C35.6582 117.172 34.6227 118.221 33.775 119.068C34.6334 119.938 35.6743 120.987 36.6723 121.998C37.123 120.715 38.1746 119.677 39.3979 119.226C38.3999 118.221 37.3859 117.199 36.5167 116.319V116.313ZM36.5221 131.035C37.3859 130.171 38.4214 129.138 39.4247 128.139C38.1478 127.677 37.1283 126.628 36.6723 125.367C35.6529 126.394 34.6066 127.443 33.7803 128.28C34.6442 129.144 35.6636 130.171 36.5221 131.035ZM36.5328 107.107C35.6529 107.982 34.6173 109.004 33.7803 109.835C34.6764 110.754 35.7012 111.803 36.5006 112.623C37.402 111.721 38.4429 110.689 39.253 109.873C38.3785 108.988 37.3698 107.955 36.5274 107.102L36.5328 107.107Z" fill="white"/>
<path d="M109.154 66.8811C110.105 65.8791 111.102 64.8332 112.062 63.8201C110.23 62.9659 109.008 61.3779 109.196 58.8863C109.353 56.7836 110.533 55.4967 112.433 54.6754C110.903 54.0621 109.854 53.0435 109.337 51.4665C107.473 54.4618 105.787 55.3489 103.474 54.5823C101.501 53.9306 100.263 52.0524 100.326 49.7963C100.378 47.6991 101.783 45.9249 103.808 45.3828C105.985 44.8023 107.797 45.8482 109.186 48.3781C109.87 47.6005 110.46 46.5436 111.332 46.0344C112.23 45.5142 113.425 45.2787 114.464 45.3554C116.385 45.4977 117.868 47.25 118.228 49.3802C118.578 51.4446 117.529 53.2188 115.106 54.6644C119.34 56.581 119.283 62.0514 115.064 63.9789C117.054 64.8386 118.234 66.3336 118.249 68.5513C118.265 70.7909 117.074 72.3078 115.341 73.0799C116.317 74.1039 117.304 75.1333 118.228 76.108C119.982 72.034 125.068 71.9956 126.864 76.0752C127.657 75.2812 128.425 74.3284 129.364 73.6439C130.367 72.9156 131.588 72.9539 132.747 73.3153C134.69 73.9232 136.021 75.889 135.958 77.9698C135.89 80.0671 134.538 81.918 132.669 82.4656C130.398 83.1282 128.607 82.1808 127.088 79.6236C126.159 80.6038 125.198 81.6168 124.217 82.6517C124.316 82.712 124.603 82.8653 124.88 83.0405C126.963 84.3493 127.725 87.1091 126.571 89.3488C125.825 90.7999 124.744 91.5775 123.037 91.6706C120.682 91.7965 119.058 90.9806 118.113 88.4124C117.106 91.4296 114.991 92.021 112.506 91.6979C110.987 91.5008 109.515 89.869 109.254 88.1769C108.841 85.5211 109.922 83.6648 112.35 82.5094C110.204 81.4744 109.029 79.9028 109.191 77.477C109.332 75.4236 110.465 74.1312 112.057 73.392C111.102 72.3735 110.105 71.3221 109.154 70.3145C107.557 72.9594 105.86 73.8739 103.547 73.173C101.59 72.5816 100.29 70.6705 100.321 68.4418C100.352 66.3664 101.689 64.5648 103.626 63.9899C105.876 63.3218 107.682 64.3184 109.154 66.8757V66.8811ZM120.745 82.5203C119.894 81.6168 118.944 80.6038 118.124 79.7331C117.309 80.5928 116.333 81.6332 115.503 82.5094C116.359 83.4293 117.33 84.4752 118.113 85.3185C118.959 84.4205 119.92 83.4019 120.745 82.5258V82.5203Z" fill="white"/>
<path d="M152.226 64.7973C154.165 65.5071 155.405 66.6728 155.652 68.5017C155.979 70.9109 154.671 72.517 152.266 73.5169C155.153 74.9987 156.243 76.8794 155.554 79.0968C154.946 81.076 152.926 82.4748 150.699 82.4593C148.449 82.4489 146.463 81.0397 145.889 79.0554C145.229 76.7706 146.262 75.0039 148.903 73.6516C147.858 72.7087 146.768 71.7295 145.861 70.9109C145.115 71.5585 144.288 72.4704 143.261 73.118C142.17 73.8071 140.85 73.8174 139.553 73.4755C137.441 72.9159 135.857 70.9472 135.966 68.9939C136.081 66.9474 137.728 65.1341 139.863 64.7248C142.377 64.2378 144.518 65.3051 145.786 67.7039C146.263 67.1029 146.659 66.4501 147.215 65.9475C147.76 65.4605 148.478 65.1289 149.092 64.7403C146.085 62.9425 145.149 61.2484 145.947 58.9635C146.607 57.0725 148.587 55.8239 150.871 55.8601C153.086 55.8964 155.015 57.2746 155.583 59.2226C156.214 61.4193 155.181 63.1601 152.226 64.7921V64.7973Z" fill="white"/>
<path d="M91.0822 60.4342C91.0981 57.8689 93.1384 55.854 95.71 55.8594C98.3188 55.8594 100.343 57.9223 100.322 60.5571C100.306 63.0904 98.2125 65.1747 95.6941 65.1694C93.1278 65.1694 91.0609 63.0476 91.0822 60.4342Z" fill="white"/>
<path d="M131.981 55.8594C134.196 55.8487 135.982 57.9437 135.959 60.5251C135.936 63.0637 134.165 65.1533 132.022 65.1693C129.847 65.18 128.017 63.0209 128.039 60.4663C128.062 57.9117 129.811 55.8648 131.985 55.8594H131.981Z" fill="white"/>
<path d="M260.704 82.4795C263.437 83.9283 264.436 85.8528 263.831 88.2639C263.318 90.3073 261.417 91.7778 259.284 91.7724C257.118 91.7724 255.152 90.2263 254.687 88.1666C254.158 85.8258 255.228 83.8418 257.588 82.6201C256.605 81.6416 255.589 80.6307 254.569 79.609C253.818 81.3497 252.333 82.6309 250.102 82.6039C247.909 82.5822 246.408 81.3767 245.592 79.29C243.956 82.1011 242.098 83.0796 239.7 82.4417C237.68 81.9011 236.265 79.9928 236.281 77.8196C236.298 75.7221 237.734 73.8516 239.727 73.3273C242.103 72.7056 244.064 73.7381 245.56 76.4735C246.435 74.4733 247.845 73.2191 250.048 73.1975C252.295 73.1705 253.769 74.3706 254.693 76.5114C255.827 74.0084 257.642 72.8461 260.293 73.2948C262.157 73.6084 263.674 75.1977 263.934 77.2736C264.241 79.7333 263.005 81.3875 260.699 82.4687L260.704 82.4795Z" fill="white"/>
<path d="M64.6761 77.7521C64.7131 80.2884 62.5631 82.473 60.0485 82.4623C57.5551 82.4517 55.479 80.3736 55.4421 77.8374C55.3998 75.3117 57.4231 73.2177 59.964 73.1538C62.5155 73.0898 64.6444 75.1625 64.6814 77.7468L64.6761 77.7521Z" fill="white"/>
<path d="M172.914 77.8019C172.914 80.3398 170.865 82.4192 168.337 82.4619C165.799 82.4992 163.68 80.3665 163.68 77.7806C163.68 75.216 165.698 73.1793 168.257 73.1526C170.843 73.1259 172.925 75.2 172.92 77.8072L172.914 77.8019Z" fill="white"/>
<path d="M203.518 137.014C201.349 136.111 200.155 134.601 200.187 132.403C200.214 130.243 201.408 128.776 203.212 128.05C202.233 127.099 201.205 126.105 200.16 125.089C199.379 126.798 197.954 128.045 195.749 128.029C193.569 128.007 192.145 126.825 191.385 125.035C190.389 126.03 189.345 127.067 188.36 128.05C190.801 129.335 191.808 131.194 191.214 133.607C190.694 135.708 188.793 137.197 186.652 137.176C184.531 137.154 182.572 135.569 182.133 133.527C181.624 131.151 182.743 129.168 185.383 127.9C183.83 127.319 182.77 126.314 182.218 124.767C180.5 127.491 178.818 128.453 176.687 127.959C174.712 127.502 173.202 125.901 173.004 124.052C172.747 121.682 173.727 120.07 175.981 118.952C175.167 118.124 174.182 117.356 173.502 116.372C172.774 115.319 172.8 114.024 173.202 112.793C173.86 110.751 175.745 109.477 177.908 109.58C179.975 109.676 181.699 111.192 182.197 113.341C182.706 115.534 181.64 117.377 178.979 118.855C180.532 119.409 181.554 120.473 182.165 122.069C182.963 120.081 184.258 118.882 186.288 118.726C188.654 118.544 190.223 119.737 191.085 121.682C192.118 120.661 193.157 119.64 194.132 118.678C192.397 117.974 191.155 116.55 191.133 114.309C191.112 112.073 192.306 110.606 194.34 109.762C193.703 109.322 193.045 108.988 192.547 108.494C192.033 107.983 191.669 107.322 191.374 106.914C190.517 107.693 189.672 108.682 188.627 109.365C187.514 110.09 186.186 109.977 184.954 109.499C182.989 108.736 181.886 106.807 182.09 104.566C182.267 102.599 183.776 100.992 185.875 100.54C187.958 100.089 189.811 101.164 191.112 103.469C192.102 102.47 193.13 101.443 194.089 100.476C190.512 99.1484 189.618 93.7313 194.324 91.4474C192.316 90.566 191.117 89.1204 191.133 86.9009C191.149 84.7244 192.343 83.3056 194.298 82.4404C191.572 80.6239 190.721 79.0171 191.23 76.717C191.604 75.0241 193.157 73.5355 194.849 73.2453C197.189 72.8476 198.715 73.6967 200.348 76.3623C201.237 74.3631 202.682 73.1432 204.888 73.1647C207.057 73.1862 208.476 74.3685 209.37 76.4483C210.542 73.8902 212.422 72.7509 215.104 73.2937C216.812 73.6376 218.258 75.2821 218.504 76.9749C218.852 79.3341 217.953 80.9249 215.613 82.2523C216.587 83.2304 217.599 84.2407 218.584 85.2295C219.591 83.0906 221.39 81.8331 224.126 82.392C225.877 82.7521 227.381 84.3804 227.596 86.127C227.906 88.6582 226.787 90.3994 224.688 91.3399C225.679 92.3448 226.691 93.3713 227.547 94.2365C228.168 93.6077 228.902 92.6512 229.834 91.974C230.797 91.2754 231.981 91.1787 233.18 91.4903C235.075 91.9794 236.564 93.6454 236.714 95.5263C236.89 97.8157 235.836 99.4763 233.437 100.562C235.423 101.502 236.741 102.889 236.719 105.162C236.698 107.408 235.477 108.822 233.373 109.709C234.963 110.305 236.018 111.337 236.596 112.954C237.49 110.816 238.946 109.558 241.222 109.585C243.407 109.612 244.804 110.848 245.554 112.6C246.533 111.6 247.551 110.568 248.429 109.671C247.802 109.058 246.865 108.338 246.185 107.43C245.43 106.425 245.409 105.167 245.714 103.964C246.255 101.852 248.188 100.401 250.319 100.449C252.423 100.492 254.211 101.948 254.747 104.05C255.336 106.377 254.356 108.182 251.898 109.58C252.873 110.547 253.895 111.563 254.806 112.46C255.4 111.837 256.037 110.789 256.969 110.289C257.89 109.789 259.137 109.574 260.181 109.703C262.237 109.961 263.624 111.616 263.951 113.734C264.261 115.738 263.153 117.474 260.727 118.807C263.324 120.279 264.336 122.004 263.881 124.181C263.437 126.314 261.82 127.841 259.79 128.045C257.633 128.26 255.871 127.126 254.795 124.767C253.564 127.228 251.759 128.588 248.948 127.851C247.128 127.379 245.784 125.772 245.607 124.014C245.366 121.65 246.325 120.102 248.579 118.952C247.599 117.979 246.56 116.953 245.554 115.959C244.82 117.608 243.455 118.904 241.222 118.925C238.973 118.947 237.549 117.737 236.607 115.588C235.996 117.173 234.974 118.237 233.416 118.78C236.002 120.167 237.008 121.816 236.703 124.09C236.441 125.997 234.877 127.69 232.88 127.98C230.289 128.357 228.575 127.083 227.531 124.734C226.294 127.303 224.276 128.475 222.059 127.959C219.864 127.448 218.338 125.594 218.317 123.412C218.295 121.241 219.816 119.307 221.963 118.785C224.217 118.237 226.252 119.387 227.558 122.021C228.142 120.462 229.17 119.403 230.781 118.823C228.688 117.947 227.435 116.518 227.424 114.282C227.408 112.046 228.634 110.595 230.744 109.698C228.65 108.806 227.413 107.355 227.424 105.108C227.43 102.867 228.72 101.465 230.39 100.718C229.405 99.7235 228.388 98.7024 227.504 97.8103C226.921 98.4283 226.23 99.3312 225.374 100.024C224.42 100.798 223.2 100.809 222.032 100.61C220.153 100.293 218.638 98.5949 218.349 96.5742C218.06 94.559 219.168 92.764 221.336 91.614C220.341 90.6197 219.318 89.5879 218.354 88.626C216.887 92.3502 211.544 92.979 209.498 88.6636C208.567 89.604 207.587 90.5929 206.58 91.6086C208.24 92.3771 209.514 93.7851 209.52 95.9777C209.52 98.208 208.342 99.6805 206.516 100.444C207.49 101.406 208.513 102.416 209.536 103.421C210.623 101.212 212.475 99.9277 215.281 100.664C217.133 101.153 218.45 102.857 218.568 104.775C218.707 107.021 217.685 108.58 215.581 109.547C216.389 110.37 217.38 111.149 218.06 112.138C218.809 113.229 218.761 114.561 218.327 115.819C217.642 117.818 215.843 118.995 213.658 118.92C211.72 118.855 209.932 117.393 209.439 115.486C208.818 113.078 209.707 111.396 212.266 109.827C211.292 108.865 210.269 107.854 209.257 106.855C208.395 108.747 206.864 109.929 204.492 109.8C202.736 109.703 201.435 108.73 200.482 106.844C199.486 107.833 198.452 108.854 197.457 109.843C199.229 110.563 200.455 112.057 200.455 114.26C200.455 116.469 199.229 117.952 197.44 118.678C198.42 119.634 199.443 120.639 200.471 121.644C201.462 119.516 203.255 118.329 205.852 118.796C207.678 119.124 209.139 120.672 209.423 122.429C209.852 125.089 208.642 126.841 206.543 127.798C207.523 128.765 208.534 129.77 209.52 130.748C211.228 128.185 212.978 127.303 215.249 127.997C217.262 128.609 218.552 130.307 218.584 132.398C218.616 134.478 217.337 136.31 215.415 136.939C213.075 137.702 211.345 136.864 209.514 134.214C208.529 135.192 207.506 136.203 206.537 137.17C208.968 138.481 210.018 140.507 209.364 142.877C208.813 144.871 206.816 146.36 204.776 146.301C202.677 146.242 200.776 144.705 200.326 142.705C199.786 140.276 200.856 138.315 203.534 137.03L203.518 137.014ZM200.316 97.8909C199.432 98.7561 198.42 99.745 197.585 100.562C198.452 101.438 199.459 102.448 200.284 103.281C201.205 102.384 202.227 101.389 203.046 100.594C202.174 99.7342 201.178 98.7507 200.31 97.8909H200.316ZM252.032 118.791C252.916 119.683 253.938 120.72 254.913 121.709C255.368 120.365 256.455 119.414 257.611 118.952C256.615 117.942 255.603 116.91 254.774 116.071C253.885 116.953 252.867 117.963 252.027 118.796L252.032 118.791ZM197.505 82.4834C197.944 82.7951 198.576 83.139 199.057 83.628C199.555 84.1386 199.909 84.7888 200.187 85.1812C201.183 84.1977 202.195 83.1981 203.025 82.3812C202.136 81.4838 201.151 80.4949 200.31 79.6512C199.47 80.5003 198.485 81.4945 197.505 82.4834ZM197.601 91.4688C198.474 92.3448 199.464 93.3337 200.305 94.1774C201.183 93.3068 202.2 92.3072 203.025 91.4903C202.147 90.5982 201.146 89.5879 200.326 88.7549C199.443 89.6363 198.452 90.6197 197.601 91.4688ZM209.386 79.6566C208.513 80.5218 207.506 81.5268 206.682 82.3436C207.565 83.2465 208.551 84.2622 209.364 85.0952C210.248 84.2084 211.228 83.2196 212.079 82.3651C211.233 81.516 210.253 80.5272 209.386 79.6566Z" fill="white"/>
<path d="M48.3647 91.7558C45.5262 90.3455 44.3885 88.2922 45.0722 85.9363C45.6641 83.91 47.7614 82.4186 49.9678 82.4619C52.2892 82.5051 54.2831 84.0289 54.783 86.147C55.3461 88.5353 54.2198 90.4752 51.4962 91.718C52.1455 92.1448 52.8523 92.4961 53.3924 92.9986C53.9383 93.5119 54.3233 94.1765 54.6565 94.6034C55.5587 93.8037 56.4148 92.8257 57.4893 92.1502C58.627 91.437 60.0003 91.4694 61.3162 91.9017C63.3617 92.5771 64.7925 94.5332 64.6718 96.5108C64.5454 98.629 62.9825 100.455 60.8795 100.931C58.3972 101.493 56.3803 100.482 54.7715 97.8077C53.5418 100.309 51.525 101.46 48.6462 100.904C46.7386 100.536 45.2216 98.8667 44.986 97.1052C44.67 94.7385 45.5951 93.2417 48.3647 91.7558Z" fill="white"/>
<path d="M140.531 91.771C137.814 91.771 135.993 89.9937 135.961 87.3196C135.93 84.7114 138.095 82.45 140.615 82.461C143.136 82.472 145.18 84.6069 145.201 87.2425C145.217 90.0542 143.448 91.771 140.536 91.771H140.531Z" fill="white"/>
<path d="M163.676 87.0866C163.687 89.7139 161.649 91.7816 159.059 91.7709C156.522 91.7656 154.457 89.7032 154.441 87.1666C154.426 84.5926 156.538 82.4503 159.085 82.461C161.606 82.4716 163.671 84.5447 163.681 87.0866H163.676Z" fill="white"/>
<path d="M12.4566 110.395C9.91007 109.058 8.83451 107.097 9.38811 104.796C9.92589 102.57 11.7449 101.075 13.8907 101.086C16.0155 101.102 17.9452 102.716 18.3722 104.844C18.8415 107.168 17.7027 109.204 15.4672 110.271C16.2528 111.072 17.2071 111.836 17.8766 112.8C18.6095 113.85 18.6095 115.15 18.2352 116.396C17.5972 118.497 15.8468 119.753 13.6693 119.705C11.6447 119.661 9.93644 118.226 9.4092 116.125C8.82396 113.802 9.76245 112.042 12.4514 110.39L12.4566 110.395Z" fill="white"/>
<path d="M60.0165 129.016C62.5999 129.002 64.6919 130.788 64.6814 132.996C64.6708 135.163 62.5946 136.973 60.101 136.995C57.5652 137.018 55.4309 135.181 55.4414 132.983C55.452 130.793 57.4807 129.029 60.0165 129.02V129.016Z" fill="white"/>
<path d="M254.762 161.666C252.932 164.489 251.114 165.412 248.8 164.684C246.718 164.033 245.438 162.149 245.524 159.863C245.594 157.887 247.052 156.068 248.956 155.585C251.35 154.971 253.191 155.938 254.627 158.479C255.579 157.485 256.559 156.459 257.565 155.411C255.897 154.618 254.632 153.212 254.643 150.959C254.654 148.727 255.827 147.305 257.629 146.507C256.65 145.519 255.628 144.498 254.756 143.618C254.041 144.292 253.207 145.307 252.168 145.996C251.065 146.724 249.747 146.664 248.488 146.165C246.519 145.383 245.411 143.58 245.534 141.333C245.642 139.421 247.089 137.673 248.978 137.168C251.264 136.56 253.088 137.527 254.649 140.073C255.402 139.286 256.053 138.232 257 137.728C257.931 137.233 259.168 137.081 260.244 137.163C262.106 137.309 263.634 138.982 263.93 141.061C264.285 143.591 263.031 145.269 260.685 146.366C262.794 147.261 264.005 148.765 264 150.964C264 153.131 262.821 154.624 260.718 155.53C263.257 156.801 264.462 158.685 263.811 161.459C263.392 163.251 261.772 164.603 259.954 164.825C257.656 165.102 256.144 164.185 254.767 161.671L254.762 161.666Z" fill="white"/>
<path d="M233.98 146.796C234.966 147.931 235.907 149.02 236.816 150.068C237.263 148.892 238.054 147.612 239.436 147.201C240.346 146.935 241.394 146.836 242.303 147.062C244.302 147.56 245.586 149.755 245.514 152.124C245.448 154.273 244.009 156.266 242.164 156.764C239.852 157.389 238.054 156.295 236.806 153.653C236.066 154.499 235.372 155.519 234.489 156.248C233.564 157.013 232.413 157.071 231.272 156.781C229.541 156.335 228.128 154.592 227.871 152.553C227.583 150.265 228.595 148.388 230.877 147.01C230.301 146.546 229.674 146.164 229.191 145.62C228.703 145.064 228.359 144.345 228.071 143.894C227.301 144.739 226.556 145.788 225.61 146.523C224.603 147.311 223.375 147.294 222.194 146.853C220.334 146.164 219.034 144.038 219.121 141.849C219.214 139.59 220.735 137.54 222.636 137.111C224.917 136.601 226.694 137.731 227.953 140.505C229.443 137.638 230.949 136.659 233.209 137.099C234.894 137.424 236.441 139.086 236.713 141.073C237.093 143.842 235.979 145.759 233.965 146.801L233.98 146.796Z" fill="white"/>
<path d="M177.502 136.992C180.063 136.982 182.13 139.005 182.161 141.551C182.199 144.113 180.079 146.286 177.539 146.302C175.021 146.318 172.938 144.236 172.922 141.695C172.901 139.026 174.877 137.003 177.502 136.992Z" fill="white"/>
<path d="M91.5359 223.021C93.3617 218.592 98.8234 218.722 100.448 222.766C101.366 221.805 102.353 220.774 103.346 219.737C101.668 218.928 100.416 217.517 100.448 215.243C100.479 213.012 101.647 211.595 103.399 210.835C102.427 209.842 101.403 208.789 100.416 207.779C99.6567 209.592 98.1652 210.884 95.8882 210.808C93.797 210.738 92.401 209.516 91.6845 207.736C90.9202 208.534 90.2143 209.495 89.3119 210.168C88.3619 210.873 87.1942 211.004 85.9999 210.683C84.0414 210.157 82.6295 208.545 82.4278 206.536C82.2155 204.403 83.3567 202.623 85.6178 201.543C85.0074 201.103 84.3227 200.728 83.7919 200.196C83.2824 199.681 82.9374 199.002 82.6242 198.552C81.9501 199.301 81.3397 200.332 80.448 200.853C79.5723 201.369 78.3833 201.619 77.3696 201.532C75.3155 201.358 73.8187 199.664 73.4525 197.51C73.1021 195.441 74.2062 193.634 76.6902 192.266C74.6785 191.414 73.4365 189.937 73.4312 187.701C73.4312 185.47 74.6414 183.972 76.6265 183.136C75.9896 182.686 75.3102 182.322 74.79 181.795C74.2858 181.285 73.9355 180.607 73.5215 180.004C72.2582 182.469 70.6659 183.446 68.373 183.169C66.6055 182.952 65.0026 181.453 64.5832 179.63C64.0366 177.241 64.8062 175.776 67.4016 174.006C66.4463 173.056 65.4537 172.063 64.4452 171.053C63.2298 173.518 61.1598 174.701 58.2617 173.626C56.3934 172.937 55.2629 170.874 55.4646 168.926C55.6928 166.684 57.0781 165.121 59.2437 164.648C61.3561 164.187 63.0865 165.191 64.5886 167.824C65.4803 165.794 66.9293 164.534 69.0948 164.562C71.2232 164.589 72.6828 165.772 73.5427 167.949C74.4132 165.843 75.8622 164.567 78.0277 164.562C80.2092 164.562 81.6847 165.772 82.4119 167.617C83.3832 166.619 84.4076 165.56 85.4002 164.54C83.6433 163.785 82.4597 162.331 82.4384 160.138C82.4172 157.939 83.5743 156.463 85.6974 155.508C83.6698 154.579 82.4384 153.119 82.4384 150.91C82.4384 148.706 83.6008 147.241 85.6443 146.334C83.0435 144.928 81.7219 142.925 82.7834 139.935C83.4841 137.959 85.3046 136.868 87.4277 137.004C89.3385 137.123 90.9892 138.491 91.4616 140.347C92.1038 142.855 91.3395 144.434 88.5264 146.34C90.6654 147.322 91.8331 148.945 91.6367 151.371C91.4775 153.353 90.3257 154.607 88.4521 155.453C90.3788 156.436 91.6686 157.809 91.658 160.056C91.6527 162.293 90.4956 163.715 88.4468 164.654C90.3629 165.62 91.6633 166.982 91.6527 169.246C91.642 171.526 90.4637 172.969 88.3937 173.86C90.8193 174.967 92.0242 176.802 91.573 179.494C91.2599 181.345 89.6304 182.865 87.8789 183.152C85.639 183.516 84.1528 182.626 82.6826 180.194C81.706 181.187 80.6816 182.23 79.7103 183.218C81.4884 184.005 82.7357 185.486 82.6561 187.869C82.5818 190.057 81.3769 191.414 79.3759 192.271C80.878 192.912 81.982 193.867 82.5127 195.561C83.6592 193.01 85.4532 191.74 88.123 192.282C89.9701 192.657 91.4244 194.302 91.6261 196.115C91.9127 198.687 90.761 200.43 88.3566 201.494C89.9383 202.102 90.968 203.128 91.5253 204.756C92.4276 202.644 93.8235 201.353 96.0952 201.374C98.3298 201.396 99.6939 202.677 100.543 204.702C101.785 202.123 103.399 201.119 105.766 201.407C107.634 201.635 109.211 203.22 109.619 205.277C110.033 207.367 109.009 209.153 106.716 210.553C107.698 211.557 108.717 212.594 109.688 213.587C110.835 211.264 112.533 210.254 114.916 210.634C116.779 210.933 118.276 212.534 118.642 214.629C118.998 216.67 117.889 218.543 115.702 219.748C116.673 220.725 117.682 221.729 118.69 222.744C119.428 220.997 120.861 219.759 123.011 219.759C125.144 219.759 126.62 220.904 127.522 223.13C128.419 220.997 129.868 219.764 132.013 219.759C134.152 219.759 135.617 220.921 136.508 223.092C137.421 221.035 138.838 219.753 141.009 219.753C143.18 219.753 144.64 220.959 145.478 223.005C147.341 220.128 149.114 219.227 151.402 219.949C153.376 220.573 154.655 222.408 154.629 224.574C154.602 226.647 153.244 228.482 151.322 229.035C149.019 229.698 147.219 228.759 145.643 226.197C144.693 227.179 143.706 228.199 142.771 229.171C147.007 231.293 146.375 236.618 142.718 238.165C143.663 239.131 144.666 240.157 145.638 241.145C148.493 236.977 152.368 236.998 154.486 241.428C156.226 238.61 157.771 237.731 160.021 238.274C161.969 238.746 163.424 240.364 163.61 242.263C163.838 244.608 162.787 246.334 160.372 247.447C162.341 248.392 163.647 249.787 163.625 252.083C163.604 254.357 162.405 255.795 160.409 256.642C163.174 258.33 164.135 260.176 163.487 262.51C162.877 264.708 161.046 266.065 158.79 266C156.736 265.935 155.006 264.426 154.501 262.255C153.981 260.029 155.059 258.086 157.66 256.664C155.627 255.79 154.395 254.314 154.411 252.039C154.427 249.787 155.674 248.337 157.373 247.621C156.391 246.622 155.377 245.596 154.385 244.587C153.663 246.291 152.299 247.545 150.112 247.577C147.883 247.61 146.471 246.389 145.531 244.266C144.427 246.818 142.602 247.941 140.006 247.491C138.154 247.17 136.699 245.547 136.455 243.468C136.163 240.982 137.4 239.332 139.374 238.415C138.387 237.422 137.384 236.417 136.386 235.408C135.611 237.172 134.194 238.404 131.997 238.382C129.842 238.361 128.446 237.156 127.586 235.164C125.373 239.805 120.145 239.131 118.573 235.202C116.227 240.13 110.782 238.779 109.572 235.055C108.648 237.118 107.241 238.415 104.996 238.382C102.783 238.35 101.387 237.107 100.548 235.012C99.6832 237.15 98.2449 238.415 95.9731 238.382C93.8076 238.35 92.4063 237.139 91.5571 235.012C90.692 237.123 89.2748 238.377 87.0562 238.382C84.8375 238.382 83.431 237.123 82.6826 235.381C81.7166 236.379 80.724 237.4 79.758 238.393C82.3376 240.217 83.1815 241.959 82.4597 244.277C81.8068 246.378 80.0393 247.643 77.8473 247.577C75.825 247.518 74.0894 246.101 73.5798 244.087C72.9748 241.688 73.8452 239.984 76.6212 238.236C74.6202 237.378 73.4206 235.886 73.4206 233.687C73.4206 231.511 74.583 230.018 76.6424 229.106C74.1212 227.803 72.9058 225.898 73.6223 223.086C74.0947 221.235 75.7348 219.96 77.7039 219.759C79.7103 219.558 81.3397 220.66 82.5021 222.999C84.5244 218.359 89.986 218.945 91.5146 223.016L91.5359 223.021ZM85.2197 229.079C84.3651 228.189 83.3726 227.152 82.5605 226.305C81.7272 227.174 80.7347 228.199 79.8907 229.073C80.7347 229.953 81.7272 230.984 82.5605 231.853C83.3726 231.006 84.3651 229.969 85.2197 229.079ZM109.651 231.961C109.964 231.511 110.315 230.837 110.824 230.322C111.318 229.817 111.965 229.464 112.326 229.204C111.344 228.178 110.373 227.163 109.545 226.305C108.728 227.152 107.714 228.205 106.886 229.068C107.767 229.991 108.744 231.006 109.656 231.961H109.651ZM112.194 219.889C111.328 218.977 110.357 217.951 109.556 217.105C108.706 217.979 107.709 219.004 106.87 219.867C107.735 220.774 108.728 221.805 109.534 222.652C110.362 221.789 111.35 220.763 112.188 219.889H112.194ZM100.554 226.3C99.7204 227.163 98.7332 228.194 97.8786 229.079C98.7279 229.964 99.7204 230.995 100.548 231.858C101.376 230.995 102.385 229.953 103.208 229.095C102.337 228.178 101.355 227.146 100.548 226.3H100.554ZM88.8873 229.079C89.7366 229.969 90.7291 231.011 91.5306 231.853C92.4064 230.957 93.4095 229.936 94.2216 229.101C93.3405 228.172 92.3586 227.13 91.5677 226.294C90.7291 227.163 89.7366 228.194 88.8873 229.073V229.079ZM76.2656 173.887C75.4004 173.002 74.3813 171.965 73.5745 171.146C72.6828 172.036 71.685 173.035 70.8623 173.86C71.7221 174.744 72.7147 175.765 73.5639 176.639C74.4185 175.77 75.4482 174.723 76.2656 173.892V173.887ZM82.5605 171.113C81.7166 171.982 80.7028 173.013 79.8536 173.887C80.6816 174.728 81.7007 175.776 82.5605 176.65C83.3938 175.797 84.4235 174.744 85.2621 173.887C84.4023 173.002 83.3832 171.96 82.5658 171.113H82.5605ZM124.863 229.073C125.723 229.969 126.71 230.995 127.517 231.831C128.414 230.924 129.412 229.915 130.224 229.101C129.338 228.194 128.366 227.195 127.538 226.349C126.705 227.195 125.728 228.194 124.863 229.079V229.073ZM139.199 229.084C138.339 228.194 137.352 227.168 136.545 226.338C135.654 227.233 134.656 228.243 133.838 229.063C134.72 229.969 135.691 230.973 136.524 231.825C137.352 230.979 138.329 229.974 139.199 229.084ZM121.201 229.073C120.346 228.194 119.375 227.184 118.531 226.316C117.714 227.163 116.721 228.194 115.872 229.073C116.732 229.974 117.724 231.011 118.526 231.853C119.38 230.968 120.352 229.958 121.201 229.073Z" fill="white"/>
<path d="M224.405 247.511C226.618 248.502 227.884 250.105 227.66 252.607C227.478 254.627 226.297 255.894 224.688 256.555C225.495 257.383 226.484 258.168 227.163 259.165C227.889 260.226 227.863 261.531 227.462 262.772C226.794 264.835 224.961 266.086 222.764 265.999C220.739 265.918 219.029 264.434 218.516 262.317C217.965 260.026 218.938 258.26 221.664 256.668C219.67 255.861 218.446 254.415 218.393 252.233C218.34 249.948 219.59 248.442 221.391 247.657C220.402 246.682 219.387 245.675 218.372 244.668C217.613 246.363 216.239 247.614 214.032 247.624C211.804 247.635 210.377 246.417 209.474 244.305C208.501 246.476 207.047 247.695 204.766 247.624C202.66 247.554 201.335 246.363 200.56 244.624C199.587 245.615 198.577 246.639 197.583 247.652C199.828 248.729 201.046 250.668 200.335 253.506C199.892 255.282 198.171 256.652 196.434 256.793C194.142 256.977 192.602 256.013 191.389 253.554C190.182 256.029 188.343 257.318 185.612 256.641C183.774 256.186 182.593 254.897 182.283 253.024C181.845 250.381 183.063 248.572 185.153 247.657C184.175 246.671 183.165 245.648 182.171 244.646C181.219 246.839 179.365 248.025 176.682 247.522C174.924 247.191 173.46 245.539 173.182 243.785C172.819 241.516 173.748 239.869 176.084 238.472C175.101 237.465 174.08 236.431 173.118 235.445C171.728 237.877 170.195 238.781 167.811 238.38C166.048 238.088 164.53 236.561 164.134 234.687C163.68 232.531 164.61 230.842 167.25 229.12C165.855 228.492 164.685 227.593 164.348 226.092C164.129 225.129 164.102 224.018 164.348 223.071C164.872 221.051 166.929 219.718 168.939 219.859C171.141 220.011 172.867 221.527 173.31 223.693C173.754 225.86 172.642 227.831 170.392 229.028C171.37 230.013 172.38 231.037 173.39 232.05C174.123 230.279 175.603 229.028 177.794 229.038C179.974 229.049 181.471 230.279 182.165 232.077C183.149 231.069 184.153 230.04 185.142 229.028C183.293 228.161 182.096 226.65 182.219 224.295C182.326 222.21 183.501 220.904 185.174 220.146C184.202 219.161 183.191 218.143 182.187 217.13C181.113 219.383 179.215 220.65 176.404 219.913C174.705 219.469 173.348 217.769 173.171 216.058C172.931 213.707 173.877 212.137 176.111 210.951C175.143 209.976 174.123 208.952 173.118 207.945C172.375 209.673 170.927 210.967 168.709 210.951C166.507 210.94 165.054 209.684 164.332 207.913C163.349 208.915 162.312 209.971 161.329 210.972C163.584 212.072 164.733 214.119 164.236 216.41C163.766 218.554 161.82 220.157 159.672 220.162C157.476 220.162 155.584 218.581 155.082 216.317C154.595 214.113 155.787 212.034 158.304 210.842C156.3 209.943 155.017 208.514 155.017 206.272C155.017 204.024 156.209 202.546 158.021 201.799C157.043 200.813 156.006 199.773 154.991 198.755C154.269 200.499 152.853 201.739 150.667 201.771C148.444 201.804 147.001 200.564 146.077 198.43C145.195 200.52 143.763 201.755 141.588 201.771C139.418 201.793 137.975 200.602 137.083 198.566C136.612 199.221 136.249 199.898 135.725 200.418C135.212 200.927 134.539 201.279 133.946 201.696C136.511 202.979 137.59 205.005 137.008 207.436C136.527 209.445 134.576 210.972 132.503 210.983C130.387 210.989 128.404 209.413 127.96 207.36C127.426 204.907 128.484 202.952 131.135 201.658C129.104 200.791 127.853 199.329 127.837 197.12C127.821 194.888 129.008 193.377 130.862 192.608C129.879 191.65 128.858 190.653 127.827 189.646C126.624 192.024 124.61 193.28 121.692 192.24C119.763 191.552 118.656 189.608 118.811 187.496C118.961 185.417 120.34 183.797 122.413 183.278C124.561 182.736 126.293 183.684 128.003 186.386C128.906 184.393 130.328 183.158 132.54 183.18C134.699 183.202 136.099 184.42 136.874 186.159C137.9 185.146 138.926 184.128 139.894 183.164C137.617 181.929 136.548 180.131 136.954 177.981C137.371 175.777 138.948 174.245 141.069 173.99C143.132 173.741 144.955 174.927 145.922 177.017C146.766 176.2 147.562 175.203 148.567 174.51C149.62 173.784 150.897 173.811 152.126 174.234C154.077 174.905 155.301 176.763 155.237 178.951C155.172 180.998 153.783 182.741 151.774 183.288C149.545 183.895 147.808 182.958 146.205 180.434C145.216 181.425 144.185 182.454 143.207 183.435C144.987 184.193 146.226 185.66 146.184 187.978C146.146 190.199 144.933 191.601 142.983 192.424C143.608 192.858 144.292 193.21 144.81 193.729C145.323 194.239 145.671 194.921 146.114 195.56C146.975 193.692 148.332 192.37 150.571 192.37C152.816 192.37 154.237 193.578 154.991 195.397C155.958 194.412 156.984 193.361 157.866 192.468C157.209 191.785 156.22 191 155.541 189.998C154.82 188.937 154.836 187.637 155.242 186.391C155.894 184.388 157.807 183.083 159.971 183.18C161.975 183.267 163.782 184.832 164.236 186.873C164.744 189.143 163.637 191.13 161.307 192.343C162.291 193.318 163.322 194.341 164.338 195.349C165.299 193.199 167.111 191.959 169.783 192.478C171.664 192.847 173.096 194.515 173.358 196.394C173.663 198.582 172.648 200.261 170.382 201.533C171.365 202.519 172.396 203.542 173.401 204.55C174.144 202.817 175.544 201.555 177.799 201.56C180.054 201.56 181.428 202.849 182.181 204.56C183.149 203.569 184.148 202.546 185.142 201.528C183.485 200.764 182.197 199.362 182.214 197.071C182.23 194.796 183.437 193.367 185.244 192.614C184.469 191.872 183.416 191.217 182.903 190.264C182.401 189.338 182.246 188.087 182.31 187.003C182.417 185.211 184.009 183.619 185.901 183.278C188.52 182.801 190.272 184.079 191.389 186.505C192.271 184.431 193.671 183.213 195.846 183.191C198.027 183.169 199.464 184.344 200.362 186.386C200.827 185.736 201.196 185.059 201.719 184.539C202.232 184.025 202.906 183.673 203.488 183.267C199.571 181.756 198.882 176.216 203.547 174.071C201.543 173.259 200.351 171.791 200.314 169.625C200.277 167.405 201.452 165.883 203.312 165.087C202.313 164.096 201.308 163.099 200.293 162.092C199.512 163.836 198.085 165.076 195.878 165.06C193.703 165.038 192.292 163.841 191.528 162.043C190.556 163.034 189.551 164.063 188.573 165.065C191.256 167.042 192.057 168.769 191.25 171.109C190.561 173.096 188.739 174.315 186.58 174.228C184.602 174.147 182.892 172.755 182.352 170.789C181.727 168.499 182.678 166.636 185.153 165.071C184.18 164.09 183.175 163.072 182.315 162.2C181.663 162.85 180.894 163.831 179.926 164.518C178.879 165.266 177.591 165.239 176.367 164.849C174.358 164.21 173.129 162.395 173.166 160.213C173.203 158.209 174.561 156.4 176.447 155.837C178.788 155.139 180.546 156.048 182.379 158.93C183.197 156.861 184.688 155.653 186.863 155.653C189.001 155.653 190.481 156.839 191.373 159.022C192.266 156.899 193.725 155.664 195.878 155.653C198.021 155.642 199.507 156.812 200.426 158.989C201.356 156.899 202.81 155.637 204.974 155.653C207.112 155.669 208.603 156.834 209.479 159.016C210.377 156.92 211.83 155.653 214.011 155.653C216.186 155.653 217.677 156.855 218.505 158.913C220.445 155.978 222.203 155.106 224.549 155.886C226.521 156.541 227.766 158.377 227.718 160.554C227.676 162.596 226.249 164.432 224.314 164.946C221.995 165.558 220.157 164.583 218.575 161.903C218.169 162.493 217.837 163.148 217.346 163.646C216.838 164.166 216.175 164.535 215.539 164.995C217.394 165.878 218.666 167.28 218.66 169.549C218.649 171.775 217.484 173.199 215.411 174.115C217.394 175.068 218.692 176.476 218.66 178.766C218.628 181.03 217.41 182.444 215.673 183.18C216.645 184.144 217.672 185.157 218.692 186.175C219.462 184.507 220.857 183.18 223.112 183.207C225.33 183.234 226.74 184.469 227.473 186.229C228.467 185.227 229.509 184.171 230.492 183.18C228.157 181.967 227.045 179.969 227.606 177.694C228.157 175.474 230.011 173.979 232.186 174.001C234.35 174.017 236.258 175.609 236.718 177.775C237.204 180.055 236.061 182.059 233.463 183.343C235.013 183.933 236.077 184.962 236.531 186.262C237.306 185.465 238.032 184.512 238.957 183.825C239.951 183.083 241.18 183.012 242.393 183.364C244.563 183.987 245.926 185.861 245.851 188.135C245.781 190.226 244.258 192.051 242.174 192.538C239.962 193.058 237.99 191.921 236.803 189.57C235.836 190.567 234.821 191.612 233.821 192.641C235.938 193.578 237.135 195.397 236.691 198.056C236.37 199.995 234.735 201.468 232.801 201.782C230.711 202.118 228.99 201.051 227.734 198.766C226.762 199.762 225.746 200.808 224.758 201.82C226.452 202.562 227.686 203.959 227.708 206.207C227.729 208.476 226.521 209.916 224.752 210.707C225.757 211.736 226.772 212.776 227.734 213.761C229.103 211.335 230.711 210.404 233.079 210.821C234.863 211.135 236.456 212.803 236.745 214.655C237.092 216.892 236.061 218.689 233.827 219.892C234.81 220.904 235.831 221.95 236.771 222.919C238.369 218.912 243.874 218.717 245.626 222.897C246.551 221.944 247.55 220.915 248.496 219.94C244.168 217.774 244.921 212.456 248.753 210.891C244.125 208.676 244.932 203.185 248.812 201.696C246.166 200.076 245.236 198.436 245.669 196.139C246.011 194.309 247.641 192.706 249.458 192.419C251.687 192.067 253.322 193.042 254.653 195.397C255.454 194.596 256.197 193.627 257.143 192.95C258.185 192.208 259.462 192.197 260.697 192.592C262.717 193.242 264.117 195.251 263.989 197.298C263.844 199.529 262.273 201.322 260.088 201.755C257.939 202.178 255.946 200.965 254.84 198.56C254.401 199.188 254.027 199.887 253.504 200.423C252.996 200.943 252.328 201.295 251.751 201.706C255.892 203.483 256.106 208.855 251.681 210.897C253.701 211.752 254.904 213.236 254.909 215.44C254.909 217.617 253.733 219.096 251.932 219.886C252.937 220.904 253.942 221.923 254.786 222.778C255.476 222.101 256.24 221.154 257.191 220.466C258.206 219.735 259.457 219.756 260.649 220.098C262.599 220.655 264.026 222.632 263.994 224.668C263.962 226.731 262.498 228.659 260.563 229.179C258.206 229.813 256.288 228.795 254.797 226.12C252.948 230.419 247.604 230.441 245.723 226.098C243.959 230.371 238.519 230.49 236.659 226.076C234.997 230.284 229.503 230.582 227.59 226.076C226.19 229.9 220.771 230.928 218.633 226.363C217.72 227.3 216.742 228.313 215.748 229.336C217.394 230.143 218.671 231.535 218.66 233.788C218.649 236.014 217.484 237.438 215.689 238.234C216.656 239.209 217.666 240.221 218.682 241.234C219.831 238.943 221.754 237.617 224.656 238.537C226.382 239.084 227.606 240.768 227.708 242.523C227.847 244.879 226.874 246.401 224.442 247.549L224.405 247.511ZM218.372 189.543C217.618 191.347 216.213 192.533 214.022 192.56C211.788 192.587 210.404 191.298 209.452 189.267C208.533 191.341 207.138 192.543 204.958 192.56C202.74 192.576 201.351 191.298 200.399 189.273C199.464 191.357 198.064 192.56 195.878 192.56C193.677 192.56 192.282 191.314 191.507 189.603C190.47 190.621 189.444 191.628 188.461 192.592C190.24 193.296 191.443 194.769 191.485 196.941C191.534 199.215 190.278 200.732 188.204 201.614C192.298 203.288 192.848 208.682 188.263 210.853C190.294 211.703 191.491 213.198 191.491 215.402C191.491 217.606 190.251 219.09 188.536 219.843C189.551 220.883 190.55 221.912 191.512 222.903C192.266 221.051 193.73 219.875 195.889 219.865C198.075 219.848 199.518 221.11 200.442 223.201C201.34 221.045 202.804 219.87 204.958 219.865C207.133 219.859 208.581 221.089 209.49 223.206C210.414 221.024 211.905 219.832 214.102 219.87C216.245 219.908 217.672 221.121 218.393 222.892C219.371 221.895 220.37 220.867 221.327 219.886C216.982 217.715 217.704 212.435 221.583 210.842C216.71 208.427 217.96 202.968 221.722 201.631C219.686 200.759 218.42 199.302 218.404 197.071C218.388 194.818 219.643 193.34 221.386 192.587C220.397 191.585 219.376 190.556 218.377 189.543H218.372ZM197.562 238.18C198.582 239.225 199.582 240.249 200.56 241.245C201.356 239.366 202.836 238.207 204.979 238.212C207.138 238.223 208.576 239.474 209.319 241.196C210.355 240.173 211.371 239.16 212.349 238.191C210.51 237.438 209.356 235.943 209.335 233.777C209.313 231.573 210.548 230.089 212.274 229.304C211.269 228.264 210.275 227.235 209.313 226.244C208.544 228.129 207.064 229.282 204.921 229.288C202.756 229.288 201.297 228.047 200.544 226.293C199.534 227.311 198.55 228.307 197.551 229.315C199.448 230.111 200.629 231.703 200.522 233.999C200.426 236.073 199.261 237.487 197.556 238.174L197.562 238.18ZM212.172 174.093C211.301 173.21 210.297 172.187 209.484 171.358C208.597 172.246 207.587 173.248 206.743 174.087C207.593 174.938 208.603 175.956 209.474 176.833C210.313 175.983 211.323 174.959 212.178 174.093H212.172ZM209.458 180.57C208.587 181.436 207.571 182.438 206.732 183.267C207.582 184.112 208.592 185.13 209.463 185.996C210.329 185.13 211.349 184.112 212.199 183.261C211.365 182.444 210.345 181.442 209.452 180.564L209.458 180.57ZM224.913 219.989C225.773 220.888 226.756 221.912 227.569 222.751C228.424 221.879 229.423 220.861 230.268 220C229.396 219.096 228.402 218.061 227.585 217.211C226.762 218.067 225.768 219.096 224.913 219.989ZM137.003 195.148C137.906 194.266 138.921 193.269 139.749 192.462C138.889 191.596 137.874 190.578 137.019 189.727C136.131 190.605 135.116 191.617 134.272 192.457C135.105 193.28 136.126 194.287 137.003 195.154V195.148ZM161.291 201.782C162.574 202.237 163.579 203.304 164.033 204.544C165.016 203.553 166.053 202.508 166.903 201.652C166.026 200.748 165.011 199.703 164.193 198.863C163.306 199.757 162.269 200.797 161.291 201.782ZM227.718 195.349C228.178 194.13 229.193 193.047 230.871 192.446C229.209 191.861 228.183 190.783 227.558 189.126C226.965 190.854 225.896 191.839 224.726 192.3C225.73 193.323 226.74 194.352 227.718 195.354V195.349ZM179.59 238.348C180.45 239.225 181.471 240.27 182.288 241.104C183.149 240.227 184.159 239.203 184.998 238.348C184.143 237.465 183.143 236.436 182.32 235.591C181.46 236.463 180.471 237.46 179.59 238.348ZM182.294 208.059C181.428 208.936 180.397 209.971 179.59 210.794C180.482 211.714 181.487 212.743 182.283 213.566C183.143 212.695 184.148 211.676 185.003 210.805C184.169 209.965 183.159 208.936 182.294 208.064V208.059ZM194.051 247.511C193.212 246.66 192.207 245.642 191.363 244.787C190.491 245.653 189.471 246.666 188.466 247.673C189.738 248.09 190.721 249.195 191.208 250.408C192.218 249.379 193.201 248.372 194.051 247.511ZM206.759 164.908C207.603 165.764 208.608 166.777 209.468 167.648C210.329 166.777 211.355 165.748 212.167 164.919C211.269 163.998 210.275 162.98 209.479 162.168C208.581 163.067 207.598 164.058 206.759 164.903V164.908ZM191.341 241.077C192.255 240.167 193.265 239.16 194.061 238.364C193.18 237.46 192.191 236.441 191.379 235.607C190.491 236.49 189.487 237.497 188.642 238.337C189.503 239.209 190.508 240.232 191.341 241.077ZM191.352 226.417C190.518 227.268 189.519 228.286 188.669 229.152C189.546 230.062 190.54 231.096 191.331 231.92C192.228 231.015 193.238 230.002 194.051 229.179C193.169 228.28 192.191 227.278 191.347 226.417H191.352Z" fill="white"/>
<path d="M21.6566 173.577C19.1059 172.274 18.0466 170.409 18.6474 168.271C19.2113 166.27 21.0506 164.897 23.1323 164.922C25.2614 164.947 27.1376 166.421 27.6066 168.437C28.0967 170.534 26.9531 172.43 24.5183 173.557C27.3326 175.302 28.1863 176.901 27.4907 179.098C26.8688 181.049 25.1297 182.246 22.9584 182.211C20.9083 182.181 19.2218 180.894 18.6579 178.932C18.0519 176.815 18.9847 175.151 21.6619 173.577H21.6566Z" fill="white"/>
<path d="M54.8945 189.603C53.8487 191.76 52.1753 192.957 49.6371 192.79C47.8281 192.671 46.3979 191.576 45.3746 189.511C44.1875 191.922 42.3163 193.205 39.4954 192.693C37.5112 192.331 35.9735 190.719 35.7078 188.94C35.3517 186.583 36.3127 185.041 39.0658 183.531C36.3975 182.22 35.3517 180.549 35.7078 178.155C35.9905 176.262 37.6694 174.687 39.812 174.31C41.9658 173.927 43.8709 175.016 45.2277 177.297C46.0474 176.51 46.7992 175.572 47.7659 174.908C48.7835 174.207 50.0272 174.089 51.2935 174.412C53.4303 174.962 54.8549 176.521 55.0924 178.651C55.3072 180.603 54.0861 182.345 51.6948 183.509C52.3167 183.919 53.0233 184.264 53.566 184.771C54.1087 185.273 54.4875 185.936 54.821 186.367C55.6916 185.575 56.5056 184.62 57.5289 183.957C58.6482 183.234 59.9936 183.25 61.2938 183.66C63.3176 184.297 64.7422 186.211 64.6744 188.212C64.6066 190.358 63.1085 192.132 60.8981 192.687C58.5634 193.275 56.6809 192.326 54.9002 189.614L54.8945 189.603ZM45.3464 186.286C46.2791 185.407 47.3758 184.377 48.2464 183.558C47.3532 182.706 46.2678 181.676 45.3633 180.818C44.4419 181.681 43.3508 182.706 42.4633 183.536C43.3904 184.421 44.4645 185.445 45.3464 186.292V186.286Z" fill="white"/>
<path d="M254.782 179.416C253.099 181.764 251.278 182.586 249.004 182.064C246.984 181.6 245.581 180.138 245.522 178.426C245.457 176.592 246.688 175.034 248.65 174.476C251.02 173.799 252.772 174.517 254.782 176.991C255.98 174.88 258.011 173.904 260.252 174.358C262.504 174.816 264.052 176.442 263.998 178.295C263.944 180.102 262.386 181.709 260.312 182.104C258.006 182.54 255.91 181.541 254.782 179.416Z" fill="white"/>
<path d="M100.32 187.495C100.331 184.552 102.358 182.215 104.911 182.215C107.49 182.215 109.576 184.619 109.56 187.581C109.544 190.542 107.448 192.885 104.837 192.855C102.3 192.824 100.31 190.462 100.32 187.495Z" fill="white"/>
<path d="M203.993 202.16C206.536 202.174 208.55 203.923 208.56 206.125C208.566 208.327 206.441 210.163 203.903 210.14C201.414 210.112 199.331 208.295 199.32 206.139C199.31 203.932 201.408 202.147 203.993 202.16Z" fill="white"/>
<path d="M251.523 247.367C254.292 249.068 255.202 250.86 254.56 253.265C254.007 255.339 252.223 256.709 250.091 256.698C248.001 256.687 246.222 255.258 245.685 253.167C245.101 250.866 246.064 249.025 248.512 247.525C247.743 246.745 246.817 246.019 246.154 245.093C245.427 244.08 245.406 242.813 245.717 241.606C246.259 239.488 248.186 238.015 250.249 238.08C252.428 238.151 254.207 239.737 254.67 242.028C255.107 244.183 253.918 246.236 251.518 247.373L251.523 247.367Z" fill="white"/>
<path d="M121.859 256.675C119.531 255.509 118.582 253.836 118.837 251.452C119.047 249.493 120.42 247.934 122.333 247.486C124.271 247.033 125.975 248.074 127.363 250.626C128.507 248.203 130.2 246.914 132.768 247.615C134.566 248.106 135.74 249.703 135.934 251.77C136.124 253.799 135.115 255.455 132.897 256.696C135.145 257.802 136.274 259.588 135.839 262.286C135.55 264.077 134.086 265.572 132.363 265.917C130.385 266.316 128.792 265.329 127.343 262.761C126.269 265.151 124.601 266.403 122.119 265.82C120.291 265.394 119.032 263.802 118.837 261.903C118.597 259.55 119.461 258.034 121.864 256.68L121.859 256.675ZM127.353 259.405C128.172 258.536 129.121 257.527 129.911 256.691C129.116 255.844 128.157 254.824 127.373 253.988C126.519 254.878 125.57 255.871 124.796 256.685C125.595 257.538 126.544 258.552 127.353 259.41V259.405Z" fill="white"/>
<path d="M92.0101 260.02C92.858 257.966 94.2197 256.734 96.3677 256.74C98.5209 256.74 99.8724 257.982 100.695 259.961C102.159 257.26 104.004 256.241 106.224 256.888C108.264 257.483 109.605 259.319 109.559 261.458C109.513 263.602 107.987 265.465 105.921 265.905C103.798 266.356 101.907 265.21 100.725 262.689C99.8775 264.701 98.5209 265.958 96.3575 265.953C94.2043 265.953 92.8528 264.711 92.0306 262.732C90.5661 265.433 88.7212 266.447 86.5013 265.804C84.4612 265.21 83.12 263.379 83.1611 261.235C83.2073 259.091 84.7284 257.228 86.7993 256.788C88.9165 256.336 90.8127 257.483 92.0049 260.02H92.0101Z" fill="white"/>
<path d="M172.922 261.295C172.938 258.72 174.965 256.691 177.523 256.691C180.097 256.691 182.188 258.811 182.162 261.397C182.135 263.983 180.023 266.033 177.422 266.001C174.886 265.969 172.906 263.902 172.922 261.295Z" fill="white"/>
<path d="M203.956 256.691C206.493 256.691 208.523 258.726 208.56 261.301C208.597 263.892 206.52 266.007 203.94 266.001C201.419 266.001 199.363 263.946 199.321 261.392C199.279 258.833 201.393 256.686 203.956 256.691Z" fill="white"/>
<path d="M240.859 266.001C238.31 265.991 236.287 263.94 236.281 261.365C236.276 258.737 238.326 256.681 240.928 256.691C243.466 256.702 245.511 258.769 245.521 261.328C245.527 263.94 243.461 266.012 240.864 266.001H240.859Z" fill="white"/>
<rect x="5.95388" y="4.64138" width="54.0851" height="54.5651" rx="16.5624" stroke="white" stroke-width="9.27494"/>
<rect x="19.7969" y="18.625" width="26.4" height="26.6" rx="5.29997" fill="white"/>
<rect x="219.125" y="18.625" width="26.4" height="26.6" rx="5.29997" fill="white"/>
<rect x="205.282" y="4.64138" width="54.0851" height="54.5651" rx="16.5624" stroke="white" stroke-width="9.27494"/>
<rect x="18.4805" y="220.781" width="26.4" height="26.6" rx="5.29997" fill="white"/>
<rect x="4.63747" y="206.798" width="54.0851" height="54.5651" rx="16.5624" stroke="white" stroke-width="9.27494"/>
<path fill-rule="evenodd" clip-rule="evenodd" d="M102.053 109.76C100.32 113.161 100.32 117.613 100.32 126.518V139.478C100.32 148.383 100.32 152.836 102.053 156.237C103.578 159.228 106.01 161.661 109.002 163.185C112.403 164.918 116.855 164.918 125.76 164.918H138.24C147.145 164.918 151.598 164.918 154.999 163.185C157.991 161.661 160.423 159.228 161.947 156.237C163.68 152.836 163.68 148.383 163.68 139.478V126.518C163.68 117.613 163.68 113.161 161.947 109.76C160.423 106.768 157.991 104.335 154.999 102.811C151.598 101.078 147.145 101.078 138.24 101.078H125.76C116.855 101.078 112.403 101.078 109.002 102.811C106.01 104.335 103.578 106.768 102.053 109.76ZM142.127 125.081C140.071 123.242 136.924 121.903 133.641 121.903C131.072 121.903 128.5 122.829 128.5 125.172C128.5 127.391 130.848 128.244 133.712 129.284C133.951 129.371 134.193 129.459 134.437 129.549C140.007 131.461 144.596 133.804 144.596 139.354C144.596 145.385 139.991 149.506 132.467 149.974L131.783 153.252C131.659 153.854 131.13 154.283 130.521 154.278L125.786 154.242C124.974 154.236 124.373 153.482 124.541 152.682L125.262 149.272C122.301 148.459 119.706 147.008 117.656 145.003C117.138 144.497 117.134 143.658 117.648 143.148L120.277 140.535C120.775 140.04 121.572 140.043 122.07 140.539C124.611 143.062 127.884 144.102 131.01 144.102C134.437 144.102 136.762 142.683 136.762 140.278C136.762 138.159 134.86 137.451 131.234 136.103C130.852 135.961 130.451 135.812 130.031 135.654C125.38 133.989 120.973 131.584 120.973 125.972C120.973 119.49 126.299 116.331 132.583 116.014L133.274 112.74C133.4 112.145 133.923 111.718 134.528 111.718H139.255C140.069 111.718 140.675 112.472 140.509 113.275L139.742 116.956C142.454 117.851 144.658 119.249 146.3 120.671C146.857 121.153 146.876 122.017 146.36 122.545L143.913 125.045C143.425 125.543 142.647 125.546 142.127 125.081Z" fill="white"/>
</g>
<defs>
<clipPath id="clip0_3460_6078">
<rect width="264" height="266" fill="white"/>
</clipPath>
</defs>
</svg>
