<svg width="60" height="60" viewBox="0 0 60 60" fill="none" xmlns="http://www.w3.org/2000/svg">
<g clip-path="url(#clip0_3469_6207)">
<path fill-rule="evenodd" clip-rule="evenodd" d="M60 0H0V60H60V0ZM39.5661 23.7512L42.764 21.1369C43.0281 20.9256 43.0809 20.5295 42.8696 20.2654C41.5493 18.4962 39.4341 17.0702 36.8462 16.278L37.612 12.7658C37.6912 12.3697 37.3743 12 36.9782 12H32.0374C31.7205 12 31.4565 12.2113 31.4036 12.5017L30.7435 15.6442C24.72 16.1195 20.7299 19.6845 20.7299 24.4378C20.7299 28.5309 23.3996 31.0132 30.1097 32.4656C34.047 33.2842 35.2089 34.05 35.2089 35.7137C35.2089 37.879 32.8851 39.3843 29.7928 39.3843C26.3572 39.3843 23.5026 37.8526 21.6541 35.2647C21.4429 34.9743 21.0203 34.895 20.7299 35.1327L17.2415 37.8526C16.9774 38.0639 16.9246 38.4336 17.1094 38.7241C18.6146 40.9159 21.229 42.7116 24.4533 43.6358L23.6611 47.0159C23.5818 47.412 23.8723 47.8081 24.2948 47.8081H29.3148C29.6317 47.8081 29.8958 47.5969 29.9486 47.3064L30.5824 44.2696C37.1076 43.8471 41.2826 40.0708 41.2826 34.9478C41.2826 30.8547 38.6154 28.4253 32.7768 27.1841C28.1529 26.1807 26.6477 25.3356 26.7005 23.7512C26.7005 21.8499 28.6283 20.5031 31.7205 20.5031C34.4933 20.5031 37.031 21.6386 38.6683 23.6456C38.8795 23.936 39.2756 23.9889 39.5661 23.7512Z" fill="white"/>
</g>
<defs>
<clipPath id="clip0_3469_6207">
<rect width="60" height="60" rx="16" fill="white"/>
</clipPath>
</defs>
</svg>
