<svg width="16" height="16" viewBox="0 0 16 16" fill="none" xmlns="http://www.w3.org/2000/svg">
<path fill-rule="evenodd" clip-rule="evenodd" d="M13.0981 1.25643C13.3292 1.28689 13.5331 1.42309 13.6496 1.62498L15.7858 5.32453C15.9929 5.68324 15.8701 6.14194 15.5113 6.34907C15.1526 6.55619 14.6939 6.4333 14.4868 6.07459L13.4756 4.32336C13.3693 5.045 13.228 5.87771 13.0457 6.72101C12.7914 7.89692 12.4495 9.13112 11.9936 10.119C11.7657 10.6128 11.4952 11.0764 11.1695 11.4449C10.8443 11.8129 10.4242 12.13 9.89721 12.2354C8.97278 12.4203 8.24985 12.0709 7.70665 11.5482C7.20295 11.0636 6.8088 10.388 6.47605 9.81329C6.46299 9.79074 6.45002 9.76831 6.43711 9.746C6.09563 9.1559 5.80307 8.65031 5.46561 8.27465C5.13321 7.90462 4.8359 7.75001 4.50011 7.75001C4.23125 7.75001 3.89526 7.92285 3.50409 8.45814C3.12313 8.97945 2.79287 9.71095 2.52135 10.4953C2.25305 11.2704 2.05725 12.052 1.92822 12.6441C1.86395 12.939 1.81682 13.1841 1.78592 13.3545C1.77049 13.4397 1.75913 13.506 1.75174 13.5503L1.74363 13.5999L1.74178 13.6115L1.7414 13.614L1.74138 13.614L1.74135 13.6142C1.67828 14.0235 1.29539 14.3043 0.886063 14.2413C0.476666 14.1783 0.195843 13.7954 0.258827 13.386L1.00011 13.5C0.258827 13.386 0.258852 13.3858 0.25888 13.3856L0.258957 13.3851L0.25918 13.3837L0.259904 13.379L0.262476 13.3628L0.272151 13.3037C0.28063 13.2528 0.293201 13.1795 0.30999 13.0869C0.343548 12.9018 0.394074 12.6392 0.462621 12.3247C0.599207 11.698 0.80966 10.8546 1.10387 10.0047C1.39485 9.16407 1.78333 8.27056 2.293 7.57312C2.79245 6.88966 3.51896 6.25001 4.50011 6.25001C5.41432 6.25001 6.08575 6.72039 6.58149 7.27224C7.02758 7.76883 7.39328 8.40216 7.70768 8.94666C7.73011 8.98549 7.75227 9.02388 7.77418 9.06173C8.12894 9.67448 8.42229 10.1552 8.74672 10.4674C9.03165 10.7416 9.27747 10.8297 9.60304 10.7646C9.70103 10.745 9.85123 10.6715 10.0456 10.4516C10.2394 10.2322 10.4377 9.91063 10.6317 9.4904C11.0195 8.65014 11.3338 7.54059 11.5796 6.40401C11.757 5.58343 11.8946 4.76835 11.9979 4.06208L10.4881 5.57105C10.1952 5.86386 9.72029 5.86374 9.42747 5.57076C9.13466 5.27779 9.13479 4.80292 9.42776 4.5101L12.47 1.46953C12.6348 1.30473 12.867 1.22598 13.0981 1.25643Z" fill="white"/>
</svg>
