<svg width="16" height="16" viewBox="0 0 16 16" fill="none" xmlns="http://www.w3.org/2000/svg">
<path fill-rule="evenodd" clip-rule="evenodd" d="M5.9987 0.583984C6.41291 0.583984 6.7487 0.919771 6.7487 1.33398V2.58398H9.2487V1.33398C9.2487 0.919771 9.58448 0.583984 9.9987 0.583984C10.4129 0.583984 10.7487 0.919771 10.7487 1.33398V2.58398H12.6654C13.0796 2.58398 13.4154 2.91977 13.4154 3.33398V5.25065H14.6654C15.0796 5.25065 15.4154 5.58644 15.4154 6.00065C15.4154 6.41486 15.0796 6.75065 14.6654 6.75065H13.4154V9.25065H14.6654C15.0796 9.25065 15.4154 9.58644 15.4154 10.0007C15.4154 10.4149 15.0796 10.7507 14.6654 10.7507H13.4154V12.6673C13.4154 13.0815 13.0796 13.4173 12.6654 13.4173H10.7487V14.6673C10.7487 15.0815 10.4129 15.4173 9.9987 15.4173C9.58448 15.4173 9.2487 15.0815 9.2487 14.6673V13.4173H6.7487V14.6673C6.7487 15.0815 6.41291 15.4173 5.9987 15.4173C5.58448 15.4173 5.2487 15.0815 5.2487 14.6673V13.4173H3.33203C2.91782 13.4173 2.58203 13.0815 2.58203 12.6673V10.7507H1.33203C0.917818 10.7507 0.582031 10.4149 0.582031 10.0007C0.582031 9.58644 0.917818 9.25065 1.33203 9.25065H2.58203L2.58203 6.75065H1.33203C0.917818 6.75065 0.582031 6.41486 0.582031 6.00065C0.582031 5.58644 0.917818 5.25065 1.33203 5.25065H2.58203V3.33398C2.58203 2.91977 2.91782 2.58398 3.33203 2.58398H5.2487V1.33398C5.2487 0.919771 5.58448 0.583984 5.9987 0.583984ZM4.08203 6.00065L4.08203 10.0007L4.08203 11.9173L5.9987 11.9173H9.9987L11.9154 11.9173L11.9154 10.0007V6.00065L11.9154 4.08398H9.9987H5.9987H4.08203V6.00065Z" fill="white"/>
</svg>
