<svg width="14" height="14" viewBox="0 0 14 14" fill="none" xmlns="http://www.w3.org/2000/svg">
<g clip-path="url(#clip0_1536_7795)">
<circle cx="7" cy="7" r="6.3" stroke="white" stroke-opacity="0.7" stroke-width="1.4"/>
<path fill-rule="evenodd" clip-rule="evenodd" d="M9.74528 5.11467L9.05761 5.67684C8.99515 5.72795 8.90997 5.71659 8.86454 5.65412C8.51248 5.22256 7.96677 4.97838 7.37053 4.97838C6.70558 4.97838 6.29104 5.26799 6.29104 5.67684C6.27969 6.01755 6.60336 6.19926 7.59767 6.41504C8.85319 6.68193 9.42672 7.20436 9.42672 8.08453C9.42672 9.18616 8.52894 9.99818 7.12578 10.089L6.9895 10.7421C6.97814 10.8045 6.92136 10.85 6.85322 10.85H5.77373C5.68288 10.85 5.62041 10.7648 5.63745 10.6796L5.8078 9.95275C5.11446 9.75401 4.55229 9.36787 4.22861 8.89655C4.18886 8.83409 4.20022 8.75459 4.257 8.70916L5.00713 8.12428C5.0696 8.07317 5.16045 8.0902 5.20588 8.15267C5.60338 8.70916 6.21722 9.03852 6.956 9.03852C7.62095 9.03852 8.12066 8.71484 8.12066 8.2492C8.12066 7.89146 7.87081 7.72678 7.02414 7.55075C5.58123 7.23843 5.00713 6.70465 5.00713 5.82448C5.00713 4.80235 5.86516 4.03575 7.16042 3.93354L7.30239 3.25779C7.31374 3.19533 7.37053 3.1499 7.43867 3.1499H8.50112C8.5863 3.1499 8.65444 3.2294 8.6374 3.31458L8.47273 4.06982C9.02922 4.24018 9.48407 4.54682 9.76799 4.92728C9.81342 4.98406 9.80207 5.06924 9.74528 5.11467Z" fill="white" fill-opacity="0.7"/>
</g>
<defs>
<clipPath id="clip0_1536_7795">
<rect width="14" height="14" fill="white"/>
</clipPath>
</defs>
</svg>
